<svg width="775" height="817" viewBox="0 0 151 152" fill="none" xmlns="http://www.w3.org/2000/svg">
<path d="M118.694 80.649C118.099 80.649 117.579 80.4833 117.406 79.8054C117.352 79.6514 117.261 79.5134 117.139 79.4042C117.018 79.2949 116.872 79.2179 116.713 79.1802C116.087 78.9594 115.426 78.8523 114.762 78.8639C113.494 78.7809 112.221 78.8111 110.958 78.9542C110.454 79.0371 108.985 79.0522 108.457 78.3366C107.631 77.1718 107.134 75.8057 107.019 74.3821C106.363 68.5972 104.187 64.7481 102.16 60.2739C102.094 60.0924 101.969 59.9383 101.806 59.8359C101.642 59.7336 101.449 59.6889 101.256 59.7089L93.4002 60.0479C92.7147 60.1684 92.0519 59.6562 92.6921 58.8502C93.4377 57.7735 94.1241 56.6571 94.7485 55.5059C95.8256 53.8111 96.0441 53.9165 97.8217 54.0898C99.5759 54.2771 101.346 54.2518 103.094 54.0144C103.546 53.9467 103.735 53.7207 103.554 53.2612C103.465 53.0434 103.402 52.8158 103.366 52.5833C103.268 51.83 103.456 51.6191 104.217 51.589C105.17 51.4485 106.103 51.1957 106.996 50.8358C109.169 50.3106 111.285 49.5766 113.316 48.6438C113.662 48.4706 113.979 48.2371 114.333 48.0864C114.958 47.8228 115.319 48.0864 115.38 48.7418C115.463 49.6381 115.53 49.6984 116.442 49.6758C123.432 49.5176 120.381 49.7285 124.667 48.8397C128.433 48.0864 130.399 50.1729 131.386 53.909C132.493 58.097 132.636 74.5026 127.243 79.8657C126.902 80.2083 126.439 80.4031 125.955 80.408C124.072 80.3402 124.072 80.7771 118.694 80.649Z" fill="#76ABAE"/>
<path d="M119.567 46.0603C118.759 46.4581 117.831 46.534 116.969 46.2724C116.107 46.0109 115.377 45.4315 114.927 44.6517C114.24 43.4396 113.9 42.0614 113.945 40.6687C113.991 39.276 114.419 37.9228 115.183 36.7577C116.403 34.8144 117.443 34.6562 119.545 35.8237C123.145 37.8123 123.529 44.1094 119.567 46.0603Z" fill="#FEF0BB"/>
<path d="M111.892 85.2662C113.399 85.4013 114.916 85.3532 116.411 85.1231C116.881 85.1015 117.345 85.0023 117.782 84.8294C118.257 84.5808 118.701 84.9725 118.611 85.5148C118.508 86.1057 118.367 86.6894 118.189 87.2623C117.933 88.1286 115.929 88.0156 115.033 87.8875C112.957 87.7581 110.899 87.4302 108.886 86.9083C106.545 86.2833 104.131 85.9693 101.708 85.9743C101.128 85.9743 97.0228 86.2831 96.5257 86.6823C96.4814 86.7226 96.4293 86.7532 96.3725 86.7721C96.3157 86.791 96.2556 86.7979 96.196 86.7922C96.1364 86.7865 96.0787 86.7685 96.0265 86.7392C95.9743 86.7099 95.9289 86.67 95.893 86.6221C95.6896 86.4262 95.8101 86.2153 95.893 86.0345C97.166 84.0611 109.218 85.0855 111.892 85.2662Z" fill="#FEF0BB"/>
<path d="M110.099 13.8517C110.009 13.3471 109.903 12.8424 109.851 12.3452C109.851 12.0063 109.677 11.9008 109.361 11.9234C108.866 11.9212 108.375 11.8267 107.915 11.6447C106.973 11.3585 107.357 10.5149 108.231 10.2437C109.738 9.78423 109.602 8.451 109.821 7.30607C109.881 6.98971 109.881 6.62815 110.273 6.55283C110.664 6.47751 110.845 6.80893 111.026 7.11023C112.118 9.01593 113.963 8.1271 114.589 8.08944C115.214 8.05178 115.395 8.56398 115.116 8.918C114.815 9.336 114.494 9.73826 114.152 10.1232C114.021 10.2325 113.931 10.3829 113.897 10.5498C113.863 10.7167 113.886 10.8902 113.963 11.0421C114.167 11.5398 114.319 12.0573 114.415 12.5863C114.558 13.3395 114.197 13.7613 113.414 13.2567C113.102 13.0608 112.801 12.8575 112.51 12.6465C112.246 12.4582 112.073 12.4658 111.915 12.7972C111.674 13.3019 111.387 13.7764 111.116 14.3037C110.777 14.8385 110.242 14.6577 110.099 13.8517ZM110.853 12.8424C111.38 12.4055 111.297 11.705 111.877 11.5393C112.457 11.3736 112.803 11.8707 113.481 12.0666C112.818 10.9216 112.818 9.95748 113.835 9.09125C112.532 9.40008 111.448 9.2419 110.664 8.03671C110.617 8.66006 110.411 9.26094 110.066 9.78187C109.72 10.3028 109.247 10.7264 108.691 11.012C110.265 10.6128 110.845 11.3585 110.822 12.8424H110.853Z" fill="#FEF0BB"/>
<path d="M128.561 87.1347C128.523 87.9332 127.356 88.9199 126.527 89.0555C125.526 89.159 124.514 89.0354 123.567 88.6939C123.464 88.6794 123.367 88.6414 123.281 88.5828C123.196 88.5242 123.125 88.4466 123.075 88.3561C123.024 88.2656 122.996 88.1647 122.991 88.0613C122.986 87.9578 123.005 87.8547 123.047 87.7599C123.333 86.841 123.846 86.0049 124.117 85.0708C124.26 84.5586 125.533 85.0708 126.602 84.6038C126.704 84.5611 126.815 84.5483 126.923 84.567C127.031 84.5857 127.132 84.6351 127.213 84.7093C128.003 85.3797 128.214 86.3664 128.561 87.1347Z" fill="#FEF0BB"/>
<path d="M105.324 101.514C105.319 100.843 105.569 100.196 106.024 99.7035C106.478 99.211 107.104 98.9102 107.772 98.8623C108.067 98.8803 108.354 98.9629 108.614 99.104C108.873 99.2452 109.099 99.4416 109.274 99.6794C109.449 99.9172 109.57 100.191 109.628 100.48C109.686 100.77 109.68 101.069 109.61 101.356C109.486 101.949 109.196 102.495 108.774 102.93C108.533 103.221 108.212 103.436 107.852 103.55C107.491 103.663 107.105 103.67 106.74 103.57C106.328 103.404 105.974 103.121 105.723 102.755C105.471 102.39 105.332 101.958 105.324 101.514V101.514Z" fill="#76ABAE"/>
<path d="M97.1209 134.814C96.1869 134.264 96.3677 130.543 98.8685 130.415C99.3773 130.437 99.8577 130.655 100.208 131.025C100.558 131.395 100.75 131.887 100.744 132.396C100.706 134.43 99.0568 135.951 97.1209 134.814Z" fill="#76ABAE"/>
<path d="M93.5358 122.356C93.5358 123.81 92.7825 124.955 91.8711 124.955C91.2697 124.94 90.6931 124.712 90.2436 124.312C89.7941 123.912 89.5008 123.366 89.4155 122.77C89.4148 122.174 89.6437 121.601 90.0546 121.169C90.4656 120.737 91.027 120.48 91.6225 120.451C91.8757 120.441 92.1281 120.484 92.3639 120.576C92.5998 120.668 92.8142 120.808 92.9937 120.987C93.1732 121.166 93.3139 121.38 93.4072 121.615C93.5004 121.851 93.5442 122.103 93.5358 122.356V122.356Z" fill="#76ABAE"/>
<path d="M113.437 93.1004C113.437 94.2905 112.775 94.8856 111.584 95.0061C111.15 95.0924 110.7 95.0424 110.296 94.8631C109.891 94.6838 109.552 94.3838 109.325 94.0043C108.526 92.7087 109.242 91.8877 110.62 91.2625C110.922 91.0874 111.266 90.9994 111.615 91.0084C111.963 91.0175 112.303 91.1232 112.595 91.3138C112.887 91.5044 113.12 91.7723 113.269 92.0878C113.418 92.4032 113.476 92.7538 113.437 93.1004V93.1004Z" fill="#76ABAE"/>
<path d="M100.397 122.228C100.427 122.801 100.252 123.365 99.9021 123.82C99.5526 124.274 99.0522 124.589 98.4911 124.707C98.062 124.734 97.6336 124.643 97.2533 124.442C96.8731 124.241 96.5559 123.939 96.3369 123.569C95.5384 122.063 97.9187 119.66 99.4101 120.556C99.7137 120.716 99.9669 120.957 100.141 121.252C100.315 121.547 100.404 121.885 100.397 122.228V122.228Z" fill="#76ABAE"/>
<path d="M85.792 126.1C85.792 127.403 84.858 128.585 83.8336 128.585C82.8092 128.585 81.8676 127.493 81.7998 126.326C81.8278 125.773 82.0625 125.251 82.4574 124.863C82.8522 124.475 83.3783 124.25 83.9315 124.232C84.1773 124.229 84.4212 124.275 84.6488 124.368C84.8764 124.461 85.0831 124.598 85.2565 124.772C85.43 124.947 85.5668 125.154 85.6588 125.382C85.7507 125.61 85.796 125.854 85.792 126.1V126.1Z" fill="#76ABAE"/>
<path d="M98.0621 110.425C98.0595 110.145 98.1147 109.866 98.2242 109.608C98.3337 109.349 98.4952 109.116 98.6986 108.922C98.902 108.729 99.1431 108.579 99.4068 108.483C99.6704 108.386 99.9511 108.345 100.231 108.362C100.474 108.345 100.717 108.377 100.947 108.456C101.176 108.534 101.388 108.658 101.57 108.819C101.751 108.98 101.899 109.176 102.004 109.395C102.109 109.614 102.17 109.852 102.182 110.094C102.182 111.382 101.173 112.617 100.073 112.632C99.2296 112.647 98.0696 111.375 98.0621 110.425Z" fill="#76ABAE"/>
<path d="M97.9198 101.281C97.9083 101.014 97.9522 100.747 98.0488 100.498C98.1454 100.249 98.2925 100.022 98.4809 99.8328C98.6694 99.6432 98.895 99.4947 99.1436 99.3967C99.3923 99.2986 99.6585 99.2531 99.9256 99.2631C100.193 99.273 100.455 99.3381 100.695 99.4543C100.936 99.5705 101.15 99.7353 101.324 99.9383C101.498 100.141 101.628 100.378 101.706 100.634C101.784 100.889 101.808 101.158 101.776 101.424C101.782 101.693 101.735 101.961 101.636 102.211C101.537 102.462 101.39 102.69 101.202 102.883C101.014 103.076 100.789 103.23 100.541 103.335C100.293 103.44 100.027 103.494 99.7577 103.495C98.8688 103.518 97.9198 102.411 97.9198 101.281Z" fill="#76ABAE"/>
<path d="M87.374 133.219C87.3957 132.666 87.609 132.138 87.9773 131.726C88.3457 131.314 88.8461 131.043 89.3927 130.959C89.8854 131.008 90.3434 131.235 90.6815 131.596C91.0196 131.958 91.2148 132.43 91.2306 132.925C91.2111 133.463 91.0001 133.977 90.6355 134.373C90.2709 134.769 89.7767 135.022 89.2421 135.087C88.7508 135.073 88.2834 134.872 87.9359 134.525C87.5884 134.177 87.3873 133.71 87.374 133.219Z" fill="#76ABAE"/>
<path d="M105.15 114.386C105.636 114.378 106.106 114.555 106.467 114.881C106.828 115.207 107.051 115.657 107.093 116.141C107.033 117.233 105.903 118.499 104.984 118.499C104.49 118.401 104.043 118.144 103.709 117.767C103.376 117.39 103.175 116.914 103.139 116.412C103.212 115.903 103.447 115.432 103.809 115.067C104.172 114.702 104.642 114.463 105.15 114.386V114.386Z" fill="#76ABAE"/>
<path d="M94.4539 112.247C94.4766 112.506 94.4478 112.767 94.3691 113.015C94.2903 113.264 94.1633 113.494 93.9953 113.693C93.8272 113.891 93.6215 114.055 93.39 114.174C93.1584 114.293 92.9056 114.365 92.6461 114.386C92.1458 114.326 91.6809 114.097 91.3288 113.737C90.9766 113.377 90.7584 112.906 90.7103 112.405C90.6877 112.142 90.7187 111.877 90.8013 111.627C90.884 111.376 91.0167 111.145 91.1913 110.947C91.366 110.749 91.5789 110.589 91.8173 110.475C92.0557 110.362 92.3146 110.299 92.5783 110.288C92.8343 110.279 93.0893 110.324 93.3266 110.42C93.564 110.516 93.7782 110.662 93.9554 110.847C94.1325 111.032 94.2685 111.252 94.3545 111.493C94.4404 111.735 94.4743 111.991 94.4539 112.247V112.247Z" fill="#76ABAE"/>
<path d="M107.515 109.445C107.53 109.048 107.654 108.662 107.873 108.33C108.092 107.998 108.398 107.733 108.758 107.562C110.061 107.035 111.386 107.803 110.957 110.108C110.883 110.535 110.663 110.923 110.335 111.204C110.006 111.486 109.59 111.645 109.157 111.652C108.328 111.6 107.507 110.801 107.515 109.445Z" fill="#76ABAE"/>
<path d="M82.6887 59.671C83.0126 59.7764 83.3063 59.9949 83.1632 60.4242C83.0201 60.8536 82.6811 60.7933 82.3045 60.718C80.9702 60.4058 79.5971 60.2916 78.2295 60.379C77.7851 60.379 77.3859 60.0627 76.8887 60.3263C76.6854 60.4393 76.369 60.0551 76.5799 59.7463C77.0243 59.091 77.5139 58.4733 78.0111 57.8557C78.6739 56.997 80.7378 59.0307 82.6887 59.671Z" fill="#FEF0BB"/>
<path d="M85.1745 113.77C86.0935 113.77 87.0501 114.892 87.0576 116.029C87.0009 116.479 86.8024 116.899 86.4909 117.228C86.1793 117.557 85.771 117.778 85.3252 117.86C84.5719 117.86 83.2387 116.82 83.2312 116.21C83.201 114.99 84.1576 113.8 85.1745 113.77Z" fill="#76ABAE"/>
<path d="M91.0871 95.6241C91.0603 96.1707 90.8431 96.6907 90.4729 97.0938C90.1028 97.497 89.6032 97.7578 89.0609 97.8311C86.658 97.8311 86.8689 93.9142 89.2417 93.8916C89.7012 93.9253 90.1352 94.1157 90.4711 94.4311C90.807 94.7464 91.0245 95.1676 91.0871 95.6241V95.6241Z" fill="#76ABAE"/>
<path d="M88.7676 105.732C88.7676 106.855 87.8562 107.932 86.9297 107.917C86.1162 107.917 85.2952 106.862 85.3103 105.83C85.3672 105.384 85.5677 104.969 85.8816 104.647C86.1956 104.325 86.6057 104.113 87.0502 104.045C87.2754 104.037 87.5 104.075 87.71 104.156C87.9201 104.238 88.1114 104.361 88.2722 104.519C88.4329 104.677 88.5597 104.866 88.6449 105.075C88.7301 105.283 88.7719 105.507 88.7676 105.732V105.732Z" fill="#76ABAE"/>
<path d="M121.857 98.1017C122.088 97.9965 122.341 97.9512 122.594 97.97C122.847 97.9888 123.091 98.0711 123.304 98.2093C123.516 98.3475 123.69 98.5371 123.81 98.7606C123.93 98.9841 123.991 99.2341 123.989 99.4877C124.003 99.864 123.933 100.239 123.783 100.584C123.633 100.93 123.407 101.237 123.123 101.484C122.918 101.68 122.655 101.805 122.374 101.837C122.092 101.87 121.807 101.809 121.563 101.665C120.245 100.896 120.441 98.9604 121.857 98.1017Z" fill="#76ABAE"/>
<path d="M99.2219 90.0648C99.161 90.5633 98.9473 91.0307 98.6101 91.4029C98.273 91.7752 97.8289 92.0339 97.3388 92.1437C96.8727 92.1109 96.4373 91.8987 96.1242 91.5519C95.811 91.205 95.6443 90.7503 95.6591 90.2832C95.6529 89.8381 95.8213 89.4082 96.1283 89.0858C96.4352 88.7634 96.8563 88.574 97.3012 88.5583C97.7467 88.5464 98.1824 88.6904 98.533 88.9654C98.8837 89.2405 99.1273 89.6293 99.2219 90.0648V90.0648Z" fill="#76ABAE"/>
<path d="M127.003 91.7376C126.958 93.0332 126.318 93.9145 125.436 93.907C124.968 93.8689 124.531 93.6535 124.216 93.3047C123.901 92.9558 123.731 92.4999 123.741 92.0299C123.75 91.5598 123.939 91.1112 124.268 90.7756C124.597 90.4399 125.042 90.2425 125.512 90.2236C126.408 90.2839 127.199 90.7509 127.003 91.7376Z" fill="#76ABAE"/>
<path d="M92.1494 101.582C92.1929 101.157 92.3827 100.76 92.6863 100.459C92.9899 100.158 93.3885 99.9723 93.8141 99.9327C94.035 99.9174 94.2568 99.9467 94.4662 100.019C94.6755 100.091 94.8682 100.205 95.0327 100.353C95.1972 100.502 95.3301 100.681 95.4236 100.882C95.517 101.083 95.5691 101.301 95.5767 101.522C95.5767 102.388 94.8234 103.518 94.2359 103.518C93.7035 103.534 93.186 103.34 92.7955 102.978C92.405 102.616 92.1729 102.114 92.1494 101.582V101.582Z" fill="#76ABAE"/>
<path d="M104.699 129.867C104.264 129.798 103.867 129.579 103.578 129.247C103.289 128.915 103.125 128.492 103.117 128.052C103.126 127.585 103.317 127.14 103.649 126.811C103.981 126.482 104.427 126.295 104.894 126.289C106.732 126.282 106.619 129.837 104.699 129.867Z" fill="#76ABAE"/>
<path d="M101.685 96.0313C101.465 96.0464 101.243 96.0161 101.035 95.9421C100.827 95.8681 100.636 95.7521 100.475 95.6013C100.313 95.4505 100.184 95.2681 100.096 95.0654C100.008 94.8627 99.9629 94.6441 99.9629 94.4232C99.9629 94.2022 100.008 93.9836 100.096 93.781C100.184 93.5783 100.313 93.3959 100.475 93.2451C100.636 93.0943 100.827 92.9783 101.035 92.9043C101.243 92.8303 101.465 92.7999 101.685 92.815C101.912 92.788 102.142 92.8095 102.361 92.878C102.579 92.9465 102.78 93.0605 102.951 93.2124C103.122 93.3643 103.259 93.5508 103.353 93.7595C103.447 93.9682 103.495 94.1944 103.495 94.4232C103.495 94.652 103.447 94.8782 103.353 95.0869C103.259 95.2956 103.122 95.482 102.951 95.634C102.78 95.7859 102.579 95.8999 102.361 95.9684C102.142 96.0369 101.912 96.0583 101.685 96.0313V96.0313Z" fill="#76ABAE"/>
<path d="M30.2332 53.2768C30.2332 53.6534 30.1579 54.0301 29.7059 54.0301C29.254 54.0301 29.2163 53.6459 29.2163 53.2768C29.2163 50.3919 29.4724 45.88 29.4799 45.8273C29.4799 45.5109 29.5929 45.1719 29.962 45.187C30.3311 45.2021 30.3688 45.5561 30.3688 45.8725C30.3612 52.5537 30.2031 51.808 30.2332 53.2768Z" fill="#FEF0BB"/>
<path d="M81.0921 135.319C80.8235 135.327 80.5593 135.25 80.3374 135.098C80.1155 134.946 79.9473 134.729 79.8568 134.476C79.5705 133.82 79.9471 133.165 80.0526 132.517C80.0978 132.254 80.4669 132.171 80.7606 132.351C81.234 132.605 81.6456 132.96 81.9658 133.391C82.1767 133.715 82.4027 134.144 82.1391 134.461C81.8754 134.777 81.6721 135.477 81.0921 135.319Z" fill="#76ABAE"/>
<path d="M127.905 98.5694C127.764 99.4412 127.474 100.282 127.046 101.055C126.828 101.447 126.429 101.349 126.127 101.055C125.472 100.377 125.879 98.9686 126.436 98.1852C126.528 98.0248 126.67 97.8988 126.84 97.8267C127.01 97.7546 127.199 97.7403 127.378 97.786C127.762 97.8162 127.852 98.1928 127.905 98.5694Z" fill="#76ABAE"/>
<path d="M93.678 41.9458C93.6827 41.1492 93.7916 40.3566 94.0018 39.5882C94.0772 39.317 94.1374 39.0609 94.4764 39.3998C94.5921 39.5435 94.7564 39.6397 94.9383 39.6702C95.1201 39.7007 95.3069 39.6635 95.4631 39.5656C95.6344 39.4489 95.765 39.2817 95.8365 39.0872C95.9081 38.8927 95.9171 38.6807 95.8623 38.4809C95.8287 38.3068 95.7347 38.1502 95.5969 38.0386C95.4591 37.927 95.2864 37.8675 95.1091 37.8708C94.8229 37.8708 94.7325 37.7352 94.7476 37.4715C94.8044 36.29 94.6825 35.1066 94.386 33.9614C94.3377 33.7352 94.349 33.5002 94.419 33.2796C94.489 33.0591 94.6152 32.8605 94.7852 32.7035C95.9979 31.3025 97.5797 30.263 98.5966 28.6888C98.7575 28.4546 98.889 28.2017 98.9883 27.9355C99.4101 26.7454 100.45 27.3329 100.706 27.7773C102.023 30.1697 104.105 32.0504 106.619 33.1178C107.411 33.5392 108.247 33.8726 109.112 34.1121C109.29 34.1626 109.456 34.2505 109.597 34.37C109.739 34.4895 109.853 34.6378 109.933 34.8051C110.705 35.8385 111.635 36.7435 112.69 37.4866C112.842 37.596 112.96 37.7478 113.027 37.9233C113.094 38.0988 113.107 38.2901 113.066 38.4734C112.77 40.4775 112.837 42.5186 113.262 44.4993C113.318 44.7959 113.417 45.0826 113.556 45.3504C114 46.1941 112.946 46.1037 113.413 47.1808C113.491 47.3094 113.54 47.4533 113.557 47.6026C113.574 47.7519 113.559 47.9031 113.513 48.046C113.466 48.1889 113.389 48.3202 113.288 48.4308C113.186 48.5415 113.062 48.629 112.923 48.6873C111.379 49.7418 108.856 49.7494 105.677 50.8416C105.142 51.0223 104.728 50.6909 104.713 50.0883C104.713 49.674 104.6 49.4933 104.163 49.5385C102.536 49.6966 101.15 48.9208 99.9148 48.0922C97.9789 46.8268 95.9678 45.6819 94.3257 43.9871C94.0751 43.7149 93.8872 43.391 93.7753 43.0383C93.6634 42.6856 93.6301 42.3127 93.678 41.9458V41.9458ZM101.045 45.7647C101.219 45.7545 101.393 45.7318 101.564 45.6969C102.596 45.4484 105.331 42.3977 103.545 42.1718C103.176 42.1266 101.617 42.8873 100.141 43.2866C99.4553 43.4749 99.154 43.7536 99.2369 44.4616C99.3197 45.1697 99.9298 45.7572 101.045 45.7647ZM109.812 38.0666C109.806 37.9327 109.772 37.8014 109.714 37.6804C109.656 37.5595 109.575 37.4514 109.475 37.3623C109.374 37.2732 109.257 37.205 109.13 37.1617C109.003 37.1184 108.869 37.1008 108.735 37.11C108.434 37.1331 108.154 37.2711 107.952 37.4955C107.75 37.7199 107.642 38.0134 107.651 38.3152C107.668 38.5939 107.782 38.8579 107.973 39.0615C108.164 39.265 108.42 39.3954 108.698 39.43C109.012 39.3658 109.295 39.1951 109.498 38.9467C109.701 38.6983 109.812 38.3875 109.812 38.0666V38.0666Z" fill="#FFC7D6"/>
<path d="M27.9201 43.3927C27.5031 43.2758 27.1358 43.0254 26.8746 42.6798C26.6134 42.3343 26.4727 41.9126 26.4739 41.4795C26.4808 41.1526 26.3731 40.8335 26.1695 40.5777C25.9659 40.3218 25.6792 40.1452 25.3591 40.0784C24.3724 39.7997 23.3856 39.5135 22.3462 39.2649C21.0807 38.9561 20.8397 39.7922 20.1693 41.2686C19.3888 40.9746 18.5513 40.8638 17.7213 40.9447C16.9597 41.1625 16.2207 41.4525 15.5143 41.8109C15.064 41.9961 14.6693 42.2946 14.3684 42.6773C14.0675 43.0601 13.8706 43.5141 13.7969 43.9953C13.2455 46.8351 13.0909 49.7376 13.3374 52.6199C13.4504 54.3373 13.5408 54.616 15.4013 55.1433C16.9078 55.5651 18.4142 55.8965 19.9207 56.1451C21.2407 56.2825 22.5494 56.5115 23.8376 56.8305C25.3321 57.2989 26.9491 57.1776 28.357 56.4916C29.1103 56.1601 29.1103 55.5651 29.0726 54.9851C29.0726 54.9248 29.5245 45.5394 29.3513 44.6732C29.2157 44.0556 28.8466 43.7392 27.9201 43.3927ZM23.6191 48.1607C23.5363 51.0833 23.235 53.6368 23.2576 54.3222C23.2576 54.729 23.1069 54.8495 22.7228 54.8344C20.0744 54.4401 17.4568 53.8612 14.8891 53.102C14.3392 52.8911 14.1358 52.6199 14.2187 52.07C14.2066 49.7524 14.3804 47.4376 14.7384 45.1478C14.7912 44.8013 14.8966 44.741 15.2506 44.8465C17.4426 45.5394 19.642 46.1948 21.8415 46.8501C22.0895 46.9108 22.3411 46.9561 22.5947 46.9857C23.4836 47.1664 23.6417 47.2719 23.6191 48.1607ZM24.5607 55.2939C24.47 55.3067 24.3776 55.2981 24.2908 55.2688C24.204 55.2395 24.1253 55.1904 24.0609 55.1252C23.9965 55.0601 23.9482 54.9808 23.9199 54.8937C23.8916 54.8066 23.884 54.7141 23.8978 54.6235C23.8978 54.277 23.9807 54.0285 24.3874 54.0285C24.7942 54.0285 25.0503 54.262 25.0729 54.5859C25.0804 55.0378 24.9147 55.2939 24.5607 55.2939Z" fill="#FFC7D6"/>
<path d="M71.0959 54.4665C69.2806 51.8905 68.083 52.1315 67.4276 50.964C67.349 50.872 67.306 50.7548 67.3065 50.6338C67.3071 50.5128 67.351 50.396 67.4305 50.3047C67.5099 50.2134 67.6195 50.1537 67.7392 50.1365C67.859 50.1192 67.981 50.1456 68.083 50.2107C68.3136 50.3257 68.533 50.4618 68.7383 50.6175C69.5872 51.156 70.5537 51.4816 71.5554 51.5666C71.932 51.6419 71.8793 51.4084 71.7513 51.1824C71.4537 50.7287 71.2014 50.2468 70.998 49.7437C70.9001 49.4048 70.7494 49.0507 71.1185 48.8172C71.4876 48.5837 71.8115 48.8172 72.0526 49.1411C73.3632 50.7681 73.4988 51.2502 75.3066 52.4705C75.2934 51.7079 75.3872 50.9472 75.5852 50.2107C75.7811 49.6985 75.879 48.998 76.5871 49.0507C77.2951 49.1035 77.2122 49.804 77.2725 50.2635C77.5169 51.9768 77.8716 53.6726 78.3346 55.3403C78.8844 57.4946 77.2348 58.1047 75.8639 60.1309C75.6078 60.5075 75.284 60.5151 74.8471 60.3795C73.6198 59.9129 72.3613 59.5328 71.0809 59.2421C70.4838 59.2043 69.894 59.0903 69.3258 58.9031C68.9793 58.7525 68.5726 58.5642 68.6705 58.1499C68.7684 57.7356 69.5292 57.713 69.7627 57.6678C70.1619 57.585 70.7042 57.5247 70.8097 57.1782C70.9152 56.8317 70.3502 56.6886 70.0565 56.4928C69.3674 55.8764 68.5565 55.4119 67.6762 55.1294C67.6151 55.1265 67.5555 55.1096 67.5019 55.08C67.4484 55.0504 67.4023 55.0088 67.3674 54.9586C67.3324 54.9084 67.3095 54.8508 67.3004 54.7903C67.2912 54.7298 67.2961 54.668 67.3147 54.6097C67.4277 54.2255 67.7515 54.1954 68.0679 54.2255L71.0959 54.4665Z" fill="#FFC7D6"/>
<path d="M131.303 18.5049C133.954 18.6857 135.747 20.1696 135.882 22.9415C135.887 23.4596 135.789 23.9735 135.593 24.4532C135.398 24.9329 135.108 25.3689 134.742 25.7356C134.376 26.1023 133.941 26.3925 133.462 26.5891C132.982 26.7858 132.468 26.885 131.95 26.8809C130.777 26.8556 129.659 26.3744 128.833 25.5393C128.008 24.7042 127.54 23.5807 127.529 22.4067C127.511 21.9002 127.595 21.3952 127.776 20.922C127.958 20.4488 128.233 20.0171 128.585 19.6528C128.938 19.2885 129.36 18.999 129.827 18.8018C130.294 18.6045 130.796 18.5036 131.303 18.5049ZM130.369 21.3371C130.112 21.3371 129.932 21.4124 130.007 21.7137C130.218 22.5197 130.421 23.3332 130.67 24.1316C130.685 24.2122 130.723 24.2866 130.78 24.3458C130.837 24.4049 130.91 24.4462 130.99 24.4646C131.07 24.4829 131.153 24.4776 131.23 24.4493C131.307 24.4209 131.374 24.3707 131.423 24.3049C132.056 23.5968 132.643 22.8586 133.201 22.0979C133.494 21.6986 133.329 21.4124 132.817 21.3446C132.568 21.3371 130.647 21.3446 130.369 21.3371V21.3371Z" fill="#FFC7D6"/>
<path d="M96.6147 142.949C95.7033 143.122 95.289 142.618 94.8898 141.902C94.3098 140.855 94.0914 139.642 93.3005 138.678C93.2553 138.636 93.2222 138.583 93.2045 138.524C93.1868 138.465 93.1852 138.402 93.1998 138.342C93.2144 138.283 93.2446 138.228 93.2875 138.183C93.3303 138.139 93.3842 138.107 93.4436 138.091C93.9818 137.919 94.49 137.665 94.95 137.337C95.9067 136.848 96.8482 137.157 97.7747 137.27C99.2812 137.45 101.164 137.27 102.595 137.496C102.995 137.563 103.251 137.774 102.995 138.211C102.739 138.648 102.912 138.882 102.882 139.221C102.866 140.217 102.473 141.17 101.782 141.887C101.576 142.095 101.315 142.239 101.029 142.301C99.5373 142.61 98.0383 142.58 96.6147 142.949Z" fill="#FFC7D6"/>
<path d="M83.5543 141.118C83.0512 141.109 82.5481 141.131 82.0478 141.186C81.7776 141.217 81.5051 141.149 81.2817 140.994C81.0583 140.838 80.8995 140.607 80.8351 140.342C80.4186 139.126 79.8518 137.967 79.1479 136.892C78.7863 136.222 78.8842 136.139 79.5923 135.928C80.6468 135.642 81.626 136.041 82.6052 136.116C83.9912 136.229 88.119 136.681 89.4748 136.945C89.7836 137.005 90.228 137.073 90.228 137.518C90.228 137.962 89.9041 138.067 89.6179 138.195C88.5774 138.704 87.5886 139.312 86.6652 140.011C86.6125 140.011 86.5447 140.079 86.5146 140.131C85.8668 141.291 84.7369 141.103 83.5543 141.118Z" fill="#FFC7D6"/>
<path d="M33.7194 48.1907C33.8324 49.9006 33.5311 51.5426 33.5989 53.1998C33.6137 53.3127 33.6058 53.4274 33.5758 53.5372C33.5458 53.647 33.4942 53.7498 33.4241 53.8395C33.354 53.9292 33.2668 54.0041 33.1675 54.0598C33.0682 54.1155 32.9588 54.1509 32.8457 54.1639C32.1527 54.3146 31.4823 54.7138 30.7366 54.2844C30.5741 54.2289 30.4354 54.1194 30.3436 53.9742C30.2518 53.8289 30.2124 53.6567 30.2319 53.486C30.8195 45.592 30.2319 45.5017 30.7366 45.3811C31.2413 45.2606 31.761 45.0798 32.2808 44.9518C33.1696 44.7333 33.6667 45.0723 33.7194 45.9837C33.7571 46.737 33.7194 47.4902 33.7194 48.1907Z" fill="#FFC7D6"/>
<path d="M93.3996 16.2767C92.0889 14.6723 89.2944 10.5747 89.2643 10.5219C88.9404 9.97961 89.0082 9.67831 89.6861 9.22637C90.1703 8.88922 90.6732 8.57989 91.1926 8.29988C91.7801 7.98352 92.104 8.11911 92.458 8.68404C93.6331 10.5596 94.7177 12.4502 95.7647 14.4237C96.2242 15.3201 95.9982 15.9302 94.8985 16.4048C94.2658 16.6609 93.7536 16.7512 93.3996 16.2767Z" fill="#FFC7D6"/>
<path d="M43.2406 38.9639C38.4048 38.7681 36.6045 38.7154 35.8588 38.6627C34.5181 38.5723 34.729 37.9094 35.8588 37.9094C38.2768 37.8553 40.6957 37.9711 43.0975 38.2559C43.7151 38.3538 44.3328 38.0977 44.393 38.5195C44.4533 38.9413 43.798 38.9188 43.2406 38.9639Z" fill="#FFC7D6"/>
<path d="M36.7477 32.0718C35.9342 32.0718 35.7082 31.2206 36.7477 31.1754C39.0451 31.07 41.3425 31.3487 43.6399 31.2884C44.3931 31.2884 44.3931 32.0417 43.6399 32.0417C43.5721 32.0793 42.0957 32.1095 36.7477 32.0718Z" fill="#FFC7D6"/>
<path d="M42.3672 33.978C43.384 34.1362 44.3256 33.7596 44.303 34.4149C44.303 34.7689 44.0092 34.799 43.7381 34.7764C42.3295 34.6785 40.9134 34.6107 39.5124 34.4601C38.8119 34.3848 37.1246 34.4601 36.6275 34.3245C36.3864 34.2718 36.0475 34.2642 36.1002 33.8952C36.1529 33.5261 36.4392 33.624 36.6727 33.6165C38.5781 33.5519 40.4852 33.673 42.3672 33.978V33.978Z" fill="#FFC7D6"/>
<path d="M36.9057 42.1497C39.301 42.2853 41.6135 42.2627 43.9033 42.5489C44.167 42.5489 44.5586 42.6092 44.521 42.9557C44.4833 43.3022 44.1293 43.2645 43.7677 43.2344C42.3667 43.1063 40.9581 42.9708 39.5421 42.9406C38.5779 42.9406 37.6213 42.7825 36.6571 42.79C36.3709 42.79 36.0018 42.79 35.9943 42.436C35.9868 42.0819 36.2579 42.1497 36.9057 42.1497Z" fill="#FFC7D6"/>
<path d="M38.8869 45.902C40.4385 45.7966 41.945 46.241 43.4892 46.1656C43.7377 46.1656 44.0993 46.2259 44.0164 46.5573C43.9336 46.8888 43.5268 46.9114 43.2029 46.8888C42.0505 46.821 40.898 46.6929 39.7456 46.6779C38.8341 46.6779 37.9227 46.3992 37.0038 46.6779C36.9502 46.6923 36.8941 46.6951 36.8393 46.6862C36.7845 46.6773 36.7322 46.6569 36.6859 46.6263C36.6397 46.5957 36.6004 46.5555 36.5708 46.5086C36.5412 46.4616 36.5219 46.4089 36.5142 46.354C36.5142 46.1054 36.7251 46.0376 36.8983 45.9999C37.5575 45.9145 38.2225 45.8818 38.8869 45.902V45.902Z" fill="#FFC7D6"/>
<path d="M41.7422 40.0788C42.0209 40.0788 42.3674 40.0788 42.3524 40.4931C42.3373 40.9074 41.9908 40.7266 41.7799 40.7266C40.1266 40.7531 38.4734 40.6701 36.8311 40.478C36.2963 40.4027 36.3942 40.1541 36.8311 40.0487C38.466 39.9184 40.1091 39.9285 41.7422 40.0788V40.0788Z" fill="#FFC7D6"/>
<path d="M37.4711 48.6051C37.2752 48.6051 37.0342 48.6051 37.0342 48.349C37.0342 48.0929 37.2752 48.1155 37.4635 48.0854C39.2487 47.8368 41.0264 48.1983 42.804 48.0854C43.0676 48.0854 43.3237 48.1607 43.3388 48.4318C43.3539 48.703 43.045 48.7256 42.8115 48.7256C39.4446 48.7783 38.9775 48.5147 37.4711 48.6051Z" fill="#FFC7D6"/>
<path d="M76.957 60.7571C78.5087 60.6517 98.447 60.4031 101.204 60.2977C101.462 60.2833 101.717 60.3576 101.926 60.5084C102.136 60.6591 102.288 60.8772 102.356 61.1262C103.75 64.3953 107.629 75.4378 108.812 78.7972C109.007 79.3471 109.264 79.5505 109.866 79.3923C111.356 79.0993 112.886 79.0712 114.386 79.3095C115.779 79.4676 116.736 79.0533 116.773 79.9196C116.773 80.4242 116.404 80.59 116.02 80.6728C113.877 81.0095 111.697 81.0526 109.542 80.8009C109.128 80.8009 84.4518 81.1926 81.9586 81.2001C80.8061 81.2001 80.7383 81.1549 80.3617 80.0476C79.2092 76.6279 78.7347 74.6318 74.961 61.8343C74.6069 60.5764 75.0514 60.7571 76.957 60.7571ZM87.7058 69.796C87.7811 70.9033 88.2481 73.0576 88.9336 73.6827C89.619 74.3079 90.4401 73.9765 90.5756 73.2233C90.7797 72.1628 90.6805 71.0663 90.2894 70.0597C89.2876 67.0768 87.5175 69.0202 87.7058 69.7659V69.796Z" fill="#EEEEEE"/>
<path d="M130.994 84.9134C131.124 84.8932 131.256 84.9233 131.364 84.9975C131.472 85.0718 131.547 85.1845 131.574 85.3126C132.779 89.3274 132.727 88.6494 132.267 91.459C131.891 93.7187 131.695 97.9595 130.881 102.434C130.49 104.558 129.104 105.695 127.198 106.351C121.767 108.226 120.946 107.277 118.588 107.631C117.88 107.737 117.564 107.36 117.73 106.682C117.768 106.222 117.968 105.79 118.293 105.463C118.618 105.135 119.048 104.932 119.507 104.889C121.662 104.492 123.751 103.797 125.714 102.825C127.635 101.989 128.463 100.43 128.569 98.3888C128.885 92.3629 127.65 90.3518 128.893 88.4762C129.161 88.1216 129.306 87.6892 129.306 87.2446C129.306 86.8001 129.161 86.3676 128.893 86.0131C128.546 85.5235 128.765 85.0414 129.39 84.936C129.623 84.8983 130.678 84.9284 130.994 84.9134Z" fill="#EEEEEE"/>
<path d="M134.136 61.1652C135.537 61.4137 136.991 61.3233 136.644 62.4909C135.821 65.665 135.215 68.8912 134.829 72.1474C134.309 75.4315 134.701 76.4861 133.993 79.8229C133.85 80.5159 133.39 80.7494 132.682 80.5762C131.693 80.3613 130.681 80.2627 129.669 80.2824C129.573 80.2809 129.477 80.3011 129.39 80.3415C129.303 80.382 129.226 80.4416 129.164 80.5159C129.122 80.5659 129.071 80.6071 129.013 80.6371C128.955 80.6672 128.892 80.6856 128.827 80.6911C128.762 80.6967 128.696 80.6895 128.634 80.6697C128.572 80.65 128.514 80.6182 128.464 80.5762C128.238 80.3803 128.321 80.1393 128.464 79.9284C129.767 77.9172 130.083 75.6048 130.392 73.3149C130.656 71.3038 131.191 69.368 131.612 67.3945C131.981 65.6997 132.207 63.9748 132.471 62.2649C132.569 61.4815 133.013 61.1576 134.136 61.1652Z" fill="#EEEEEE"/>
<path d="M97.1669 23.2458C95.9542 23.532 95.103 24.4509 94.0636 25.0385C93.5288 25.3398 93.0241 25.7164 92.3236 25.3699C91.7888 25.1063 91.7737 24.7824 92.0148 24.338C92.5875 23.5115 93.3666 22.8493 94.2745 22.4172C95.709 21.5448 97.3249 21.0139 98.9973 20.8655C100.225 20.7299 104.684 19.1105 108.789 21.6188C109.927 22.3042 113.701 22.7034 116.834 28.059C117.856 29.8079 118.572 31.7184 118.951 33.7083C119.131 34.6423 118.717 35.0566 117.783 34.921C116.277 34.695 116.066 34.68 116.201 33.7158C116.222 33.4722 116.149 33.2299 115.998 33.0379C114.853 30.9213 114.228 26.4169 109.302 24.1572C106.017 22.6658 104.421 21.4982 97.1669 23.2458Z" fill="#A6EEF8"/>
<path d="M18.9954 67.3498C18.9954 67.1012 18.9954 65.8433 19.2666 65.768C19.3715 65.7518 19.4706 65.7096 19.5548 65.6451C19.6391 65.5806 19.7057 65.4959 19.7487 65.3989C19.8129 64.5367 19.7571 63.6697 19.583 62.8228C19.463 62.7176 19.3205 62.6411 19.1665 62.5993C19.0124 62.5576 18.8509 62.5516 18.6942 62.5818C18.2497 62.5818 18.1669 62.1449 18.1594 61.8286C18.1217 59.9605 17.9258 58.0623 17.9936 56.2244C17.9936 55.9005 18.0991 55.7047 18.5134 55.7876C19.503 55.9745 20.4793 56.2261 21.4359 56.5408C21.7674 56.6463 22.0385 56.7969 22.0084 57.2037C22.0057 58.7692 22.0937 60.3335 22.272 61.8888C22.272 62.4839 22.0988 62.8078 21.5188 62.8228C21.21 62.8228 21.1196 62.9132 21.1723 63.2522C21.2401 63.7117 21.21 64.1937 21.2326 64.6683C21.2552 65.1428 21.1196 65.4215 21.6996 65.542C22.0913 65.6098 21.9256 66.3329 22.0687 67.749C22.1139 68.2236 21.9482 68.6529 21.3154 68.683C21.0367 68.683 20.758 68.7659 20.4869 68.796C18.9955 68.9316 18.9954 68.909 18.9954 67.3498Z" fill="#76ABAE"/>
<path d="M65.1918 79.9138C65.576 80.0193 65.9978 80.1699 65.9451 80.667C65.8924 81.1642 65.5157 81.3224 65.0638 81.3299C61.0264 81.3299 57.0116 81.9024 52.9667 81.7592C50.0969 81.6538 48.5753 82.5125 48.3494 81.4353C48.3171 81.106 48.4136 80.7769 48.6186 80.5171C48.8236 80.2573 49.1213 80.087 49.4491 80.0418C53.2078 79.5598 64.9885 79.8611 65.1918 79.9138Z" fill="#A6EEF8"/>
<path d="M121.588 15.3603C120.892 14.1424 120.268 12.8849 119.72 11.5941C119.396 10.7128 119.449 10.4416 120.202 9.8842C121.173 9.13096 123.727 8.37772 125.135 7.53409C126.243 6.87877 126.017 8.67148 126.642 7.82785L127.35 6.83358C127.757 6.26111 128.299 6.28371 128.578 6.9315C129.037 7.99357 129.467 9.0707 129.873 10.1554C130.016 10.5245 129.873 10.7806 129.436 10.8333C129.271 10.8333 129.09 10.8333 128.924 10.8333C127.9 10.9463 127.84 11.0291 128.103 11.9857C128.167 12.149 128.172 12.3293 128.117 12.4957C128.062 12.662 127.95 12.804 127.802 12.8972C126.147 14.0098 124.379 14.9464 122.529 15.6917C122.359 15.7609 122.169 15.7654 121.996 15.7043C121.822 15.6433 121.677 15.5209 121.588 15.3603ZM127.132 12.0611C126.665 10.9328 126.122 9.83795 125.505 8.78447C125.339 8.47564 125.173 8.64136 124.985 8.72421C120.706 10.6374 120.262 10.7203 120.548 11.2702C121.098 12.3172 121.633 13.3642 122.168 14.4187C122.184 14.4797 122.214 14.536 122.256 14.583C122.298 14.6299 122.351 14.6663 122.409 14.6891C122.468 14.7119 122.532 14.7204 122.594 14.714C122.657 14.7076 122.717 14.6864 122.77 14.6522C124.198 14.0565 125.573 13.3435 126.883 12.5205C126.975 12.4894 127.051 12.4248 127.097 12.3396C127.144 12.2544 127.156 12.1549 127.132 12.0611V12.0611ZM127.584 10.7203C127.84 10.2684 128.261 10.2684 128.615 10.1478C128.766 10.0951 128.985 10.1478 128.872 9.83147C128.005 7.7676 128.051 7.42864 127.697 7.84292C127.35 8.20284 126.986 8.54476 126.604 8.86733C126.604 8.86733 127.079 9.74109 127.584 10.7203V10.7203Z" fill="#76ABAE"/>
<path d="M98.2144 7.34538C98.2144 6.8859 98.2821 6.67499 98.5684 6.59214C99.5627 6.43396 100.256 5.21371 100.775 6.48668C102.229 10.0495 102.817 12.6708 103.457 14.1396C103.705 14.7196 103.532 15.0661 102.922 15.2469C102.757 15.2959 102.596 15.3563 102.44 15.4277C102.342 15.4819 102.233 15.5136 102.121 15.5205C102.01 15.5274 101.898 15.5092 101.794 15.4674C101.69 15.4255 101.597 15.361 101.521 15.2786C101.445 15.1961 101.388 15.0978 101.355 14.9908C101.355 14.9908 99.5777 11.0815 98.2144 7.34538Z" fill="#76ABAE"/>
<path d="M68.0227 40.3453C64.1661 40.6315 60.1288 40.5939 56.0989 40.7521C53.9899 40.8349 53.568 41.0157 53.5454 40.5788C53.5228 40.1419 53.8844 40.2474 54.1254 40.2323C55.0519 40.1721 55.9709 40.0892 56.8898 40.0967C60.754 40.0967 67.9248 39.5845 69.0547 39.7201C69.0982 39.7211 69.1411 39.7306 69.1809 39.7482C69.2208 39.7658 69.2568 39.791 69.2868 39.8225C69.3169 39.854 69.3405 39.8911 69.3562 39.9317C69.372 39.9722 69.3796 40.0155 69.3786 40.0591C69.371 40.4206 69.0848 40.3453 68.0227 40.3453Z" fill="#A6EEF8"/>
<path d="M53.7877 32.1939C53.1173 32.1412 53.0345 31.4407 53.7877 31.4407C57.4786 31.4859 60.2053 30.9887 62.9848 31.1846C63.5573 31.2298 63.7832 31.8775 62.9848 31.9378C62.8341 31.9905 55.8064 32.3596 53.7877 32.1939Z" fill="#A6EEF8"/>
<path d="M58.3974 42.6727C60.9584 42.8158 64.8301 42.3412 66.3968 42.409C66.428 42.4031 66.46 42.4033 66.491 42.4098C66.5221 42.4162 66.5516 42.4287 66.5778 42.4466C66.604 42.4644 66.6265 42.4872 66.6439 42.5137C66.6613 42.5402 66.6733 42.5699 66.6793 42.6011C66.6852 42.6323 66.6849 42.6643 66.6785 42.6953C66.6721 42.7264 66.6596 42.7559 66.6417 42.7821C66.6239 42.8083 66.6011 42.8308 66.5745 42.8482C66.548 42.8656 66.5183 42.8776 66.4872 42.8836C66.3104 42.9625 66.1223 43.0133 65.9298 43.0342C63.2386 43.2877 60.5339 43.3682 57.8324 43.2752C56.6348 43.1924 55.4371 43.343 54.247 43.1924C54.0436 43.1924 53.6821 43.2828 53.7122 42.9288C53.7423 42.5747 53.9909 42.6727 58.3974 42.6727Z" fill="#A6EEF8"/>
<path d="M55.5646 45.376C54.8113 45.376 54.6758 44.9768 55.5646 44.8638C57.8243 44.5701 60.084 44.909 62.3437 44.8638C63.6393 44.8638 64.9198 44.7207 66.2079 44.7207C66.9611 44.7207 67.0967 45.263 66.2531 45.3685C63.4887 45.7225 59.6095 45.3233 55.5646 45.376Z" fill="#A6EEF8"/>
<path d="M80.4968 37.3699C76.7306 37.1214 74.599 37.3699 71.2998 37.1138C71.1717 37.1138 71.0211 37.1138 70.9834 36.9557C70.9457 36.7975 71.1341 36.7297 71.2696 36.6996C72.6631 36.3983 78.2145 36.7975 81.8828 36.7448C82.5456 36.7372 83.7207 37.3699 80.4968 37.3699Z" fill="#A6EEF8"/>
<path d="M55.6633 37.129C54.669 37.0763 53.9007 37.129 53.9083 36.6469C53.9083 36.4134 54.1116 36.3306 54.315 36.3155C56.0408 36.1298 57.778 36.0719 59.5124 36.1422C59.7459 36.1422 60.1451 36.1422 60.0698 36.5867C59.9718 37.2344 59.6103 36.8051 55.6633 37.129Z" fill="#A6EEF8"/>
<path d="M69.5598 32.437C69.3037 32.437 68.897 32.437 68.912 32.1055C68.9271 31.7741 69.3263 31.8268 69.5824 31.8193C75.0133 31.7138 70.6595 31.631 76.3616 31.8193C76.6026 31.8193 76.8888 31.8193 76.8813 32.1507C76.8738 32.4822 76.58 32.452 76.339 32.4596L69.5598 32.437Z" fill="#A6EEF8"/>
<path d="M55.9417 34.0104C56.3635 33.9577 60.9809 33.8975 61.0035 33.8975C61.8471 33.9728 61.9903 34.5151 61.0035 34.5377C55.0981 34.711 55.5275 34.6884 54.6085 34.5377C54.4277 34.5377 54.262 34.4323 54.2921 34.2214C54.3223 34.0104 54.5332 34.0104 55.9417 34.0104Z" fill="#A6EEF8"/>
<path d="M82.8553 39.5394C81.0851 39.4265 76.9649 39.449 75.594 39.2909C75.1647 39.2457 75.1119 38.7937 75.594 38.7937C76.3642 38.7484 77.1363 38.7484 77.9065 38.7937C79.413 38.9594 80.9194 38.854 82.4711 38.8917C82.9155 38.8917 83.4579 38.8465 83.4428 39.2457C83.4277 39.6449 83.0511 39.5244 82.8553 39.5394Z" fill="#A6EEF8"/>
<path d="M74.9229 33.7914C75.179 33.8969 75.6761 33.7914 75.6761 34.1756C75.6761 34.5597 75.194 34.4241 74.9229 34.4166C72.972 34.3413 71.0211 34.2434 69.0777 34.153C68.2717 34.1153 68.3245 33.6483 68.7764 33.6483C68.9421 33.6257 74.8701 33.7462 74.9229 33.7914Z" fill="#A6EEF8"/>
<path d="M80.3467 40.9934C80.3467 40.5791 80.8589 40.7825 81.1451 40.7222C81.3537 40.6774 81.5651 40.6472 81.7778 40.6318C81.9887 40.6318 82.2524 40.6318 82.2825 40.8955C82.3428 41.4378 80.3542 41.257 80.3467 40.9934Z" fill="#A6EEF8"/>
<path d="M146.828 143.803C146.466 141.596 136.704 87.8525 136.169 85.0504C138.391 85.0504 139.031 85.1709 139.672 84.6663C140.312 84.1616 140.591 81.932 140.101 80.8549C140.029 80.6414 139.883 80.4605 139.69 80.3446C139.497 80.2287 139.269 80.1853 139.047 80.2221C138.075 80.2824 137.096 80.2221 136.109 80.2221C136.109 79.1525 135.83 81.819 138.881 62.7018C138.907 62.5363 138.895 62.3671 138.847 62.2067C138.799 62.0463 138.715 61.8988 138.602 61.7753C137.932 61.361 137.337 60.7433 136.455 60.7358H132.471C132.343 59.6963 131.966 58.687 132.162 57.8132C132.466 56.5386 132.432 55.2067 132.064 53.9491C132.044 53.7546 132.101 53.5602 132.222 53.4068C132.938 52.5294 133.58 51.5947 134.143 50.6122C135.024 48.7367 135.145 46.846 133.518 45.1814C132.508 44.157 131.522 43.1024 130.505 42.0856C130.088 41.7269 129.771 41.2664 129.585 40.749C129.399 40.2316 129.35 39.6748 129.443 39.1329C129.556 38.669 129.575 38.187 129.497 37.7158C129.419 37.2446 129.247 36.794 128.991 36.3911C128.44 35.5499 127.823 34.754 127.145 34.0108C125.67 32.6057 124.447 30.9571 123.53 29.1373C122.204 26.26 120.901 22.2 116.171 20.6257C111.651 19.1192 108.299 19.4808 106.838 19.3076C105.705 19.097 104.561 18.9562 103.411 18.8857C78.7496 18.8857 27.2355 19.059 26.1433 19.1192C24.9306 19.187 24.8779 19.2548 24.9005 20.4224C24.9532 23.94 25.2846 38.6056 25.2846 39.8484C24.9457 39.758 24.7046 39.7053 24.4636 39.6225C23.7706 39.3965 23.0927 39.1329 22.3922 38.9219C21.9989 38.8 21.5749 38.8235 21.1975 38.988C20.82 39.1525 20.5142 39.4472 20.3358 39.8183C19.7257 40.8653 19.7257 40.8653 18.5507 40.5715C17.887 40.4284 17.1981 40.4543 16.547 40.6469C15.645 41.0482 14.793 41.5538 14.0086 42.1533C13.6032 42.4877 13.3351 42.9596 13.2554 43.4791C13.0445 45.1362 12.9466 46.8084 12.8185 48.473C12.713 49.8891 12.5699 51.3052 12.5398 52.7213C12.473 53.2033 12.5774 53.6934 12.8348 54.1063C13.0922 54.5192 13.4863 54.8287 13.9484 54.981C14.8974 55.1693 15.839 55.3501 16.7881 55.5083C17.24 55.5761 17.4133 55.7569 17.4359 56.2615C17.5112 58.1748 17.6317 60.0855 17.7974 61.9937C17.7974 62.3101 18.1138 62.8147 18.3624 62.8675C18.7314 62.9428 19.1984 63.0031 19.1984 63.0031C19.1984 63.0031 19.319 64.8033 19.3566 65.1046C18.5205 65.1649 18.4753 65.21 18.4678 66.0687C18.4678 66.6487 18.4678 67.2287 18.4678 67.8087C18.4678 69.2474 18.4678 69.2474 19.8914 69.383C19.9291 69.383 19.9592 69.383 20.027 69.4583V72.3131C19.3069 72.3592 18.5901 72.4473 17.8803 72.5767C17.7349 72.6399 17.6051 72.7339 17.4997 72.8523C17.3944 72.9706 17.316 73.1105 17.2702 73.2622C17.2164 73.634 17.1862 74.0089 17.1798 74.3845C7.9827 119.263 4.06584 138.267 3.76455 139.841C3.5913 140.813 4.72116 141.092 4.99986 140.075C4.99986 139.984 17.5639 78.4897 18.2795 74.957C18.5808 73.4505 18.5657 73.4505 19.914 73.6011C20.0044 73.6011 17.0969 140.135 17.3003 140.707C17.579 141.461 18.1891 141.325 18.4226 140.843C18.5959 140.481 18.4226 144.398 21.1418 73.5936L22.9797 73.7066C23.1153 74.9043 27.4238 107.271 28.2147 113.357C28.4131 114.273 28.4437 115.217 28.3051 116.144C27.5519 119.157 22.6182 135.728 21.059 141.046C20.8029 141.928 21.059 142.372 21.895 142.485C22.7311 142.598 23.7706 142.726 24.7122 142.794C25.9174 142.884 26.1584 142.726 26.5124 141.543C27.5896 137.981 30.0451 129.74 30.2108 129.183C30.836 133.069 31.3558 136.934 31.8906 140.79C31.9583 141.295 31.8906 141.958 32.6438 141.995C33.0957 141.995 33.2765 141.551 33.1635 140.677C31.2277 126.049 31.1222 126.125 31.3934 125.206C34.5118 114.472 42.2551 88.2969 42.9632 85.879C43.7164 85.766 43.4603 86.459 43.5055 86.8281C44.3943 93.3737 50.7592 139.502 51.0379 141.4C51.1057 141.867 51.2413 142.154 51.7912 142.267C52.9146 142.434 54.0583 142.408 55.1732 142.191C56.0922 142.01 56.4236 141.611 56.273 140.685C55.2184 133.943 49.4938 97.4412 47.6709 85.8262L95.3285 85.4798C95.2145 85.6943 95.1138 85.9156 95.0272 86.1426C94.9448 86.4357 94.7876 86.7023 94.571 86.9162C94.3544 87.1301 94.0859 87.2841 93.7919 87.3629C91.9841 88.0483 90.214 88.8693 88.4137 89.5473C87.8151 89.7693 87.2777 90.1302 86.8456 90.6003C86.4135 91.0704 86.099 91.6362 85.928 92.2514C85.759 92.6914 85.6182 93.1418 85.5062 93.5997C84.5873 98.4656 83.6307 103.316 82.8021 108.197C82.4556 110.269 82.4405 112.401 82.1769 114.487C81.8681 116.965 81.4764 119.428 81.0847 121.891C80.58 125.115 80.3315 128.377 79.3372 131.525C78.8319 132.777 78.7865 134.168 79.2091 135.45C78.6819 135.819 78.1923 136.203 77.4541 135.759C77.2749 135.689 77.0831 135.658 76.8911 135.667C76.6991 135.676 76.5112 135.725 76.3393 135.811C74.8328 136.489 73.3715 137.175 71.963 137.988C71.5011 138.215 71.0893 138.531 70.7516 138.919C70.414 139.307 70.1574 139.759 69.997 140.248C69.963 140.656 70.0276 141.067 70.1853 141.446C70.2456 141.694 70.4489 141.913 70.5017 142.199C70.7126 143.095 70.9385 143.411 71.6617 143.427C74.2603 143.509 82.4179 143.6 83.8868 143.6C83.7662 144.692 84.2031 145.295 85.3932 145.536C85.7296 145.608 86.074 145.636 86.4176 145.618C96.6165 145.076 94.5526 145.001 99.5918 144.639C100.225 144.594 100.97 144.089 101.505 144.933C101.558 145.016 101.829 144.986 102.002 144.986H105.55C106.951 144.986 106.974 144.986 107.365 143.615C110.474 132.919 113.582 122.223 116.69 111.527C116.992 110.495 116.992 110.495 118.099 110.683C118.046 111.135 117.956 111.572 117.933 112.024C117.768 115.203 117.059 132.708 116.856 138.282C116.85 138.488 116.782 138.688 116.66 138.854C115.817 139.909 114.928 140.933 114.092 141.995C113.896 142.236 113.67 142.711 113.768 142.869C113.884 143 114.025 143.105 114.183 143.179C114.341 143.253 114.512 143.293 114.687 143.299C117.504 143.359 120.329 143.389 123.146 143.404C124.034 143.404 124.366 142.764 123.899 141.995C123.274 141.016 122.649 140.037 121.948 139.103C121.657 138.736 121.512 138.275 121.541 137.807C121.662 134.395 122.227 110.834 122.294 110.239C124.607 109.787 126.814 109.373 129.036 108.928C129.969 108.73 130.808 108.223 131.416 107.489C133.088 105.554 133.345 103.256 134.098 99.7009C134.399 101.433 139.544 131.164 141.849 144.443C142.112 145.95 142.12 145.95 143.664 146.003C144.462 146.003 145.253 146.116 146.052 146.093C146.315 146.093 146.752 145.844 146.805 145.656C146.926 145.045 146.933 144.417 146.828 143.803V143.803ZM138.964 81.3369C139.032 81.9847 139.092 82.5195 139.129 83.0543C139.167 83.5891 138.994 83.8829 138.331 83.8829C131.122 83.9281 115.553 84.0561 114.943 84.0561V81.706L138.964 81.3369ZM127.349 89.4493C127.514 90.4465 127.619 91.4526 127.665 92.4623C127.665 94.8953 127.552 97.3207 127.394 99.7386C127.403 100.314 127.222 100.877 126.881 101.341C126.54 101.805 126.056 102.144 125.503 102.307C123.244 103.06 121.074 103.889 118.86 104.687L118.709 104.544L123.229 89.0049C124.584 89.1932 125.88 89.9615 127.349 89.4493V89.4493ZM123.417 88.2818C123.68 87.3854 123.937 86.459 124.238 85.54C124.284 85.4545 124.349 85.3813 124.429 85.3262C124.509 85.2712 124.601 85.2361 124.697 85.2237C125.451 85.2237 126.287 85.2237 127.078 85.2237C127.157 85.2274 127.235 85.2489 127.306 85.2867C127.376 85.3245 127.437 85.3776 127.484 85.4421C127.786 85.9844 128.034 86.5569 128.328 87.1068C128.561 87.5361 128.418 87.8073 128.057 88.0709C127.628 88.4146 127.122 88.6485 126.583 88.7522C126.043 88.8559 125.486 88.8263 124.961 88.666C124.471 88.5078 123.967 88.4099 123.417 88.2818V88.2818ZM118.777 105.501C121.36 104.657 123.967 103.844 126.55 102.985C127.064 102.773 127.51 102.427 127.844 101.983C128.178 101.539 128.387 101.014 128.448 100.462C128.694 99.3722 128.843 98.2631 128.893 97.1475C129.094 94.5465 128.932 91.9301 128.411 89.374C128.397 89.2805 128.404 89.185 128.433 89.0949C128.462 89.0047 128.511 88.9224 128.577 88.8543C129.774 87.8525 129.834 87.6114 129.111 86.2104C128.953 85.8865 128.742 85.5927 128.464 85.1408C129.495 85.1408 130.414 85.1408 131.326 85.1408C131.469 85.1408 131.702 85.412 131.733 85.5852C132.923 92.5979 132.531 90.7976 132.305 92.5903C131.552 98.2321 131.492 100.876 130.347 103.324C129.901 104.266 129.213 105.072 128.352 105.66C127.492 106.248 126.49 106.596 125.451 106.668C123.123 106.947 120.78 107.083 118.445 107.279C118.325 107.279 118.197 107.279 117.933 107.241C118.091 106.714 118.197 106.254 118.363 105.817C118.459 105.666 118.606 105.554 118.777 105.501V105.501ZM65.116 78.9115C63.0521 78.9115 60.9882 78.9115 58.9244 78.9944C58.4875 78.9944 58.2464 78.8964 58.1259 78.4671C58.0054 78.0377 53.0943 60.909 52.7252 59.2896C63.3685 59.2896 64.4456 59.38 67.0368 59.1691C68.8574 59.0497 70.677 59.4162 72.3094 60.2311C72.6183 60.3742 72.9422 60.4872 73.0627 60.54L78.9003 80.9829C77.3336 80.9829 69.4697 80.9829 67.0368 81.0582C66.5547 81.0582 66.2835 80.9377 66.2835 80.433C66.2533 80.1778 66.2004 79.9257 66.1253 79.6798C66.0898 79.4457 65.9646 79.2346 65.7763 79.0912C65.5879 78.9478 65.3511 78.8834 65.116 78.9115V78.9115ZM65.3194 81.0884L48.8912 81.2842V80.0564L64.4983 80.0037C65.3947 79.9962 65.4098 80.0112 65.3194 81.0884ZM29.9698 53.3766H29.3521L29.6384 45.5731L30.3916 45.0759L29.9698 53.3766ZM29.8493 54.1826C30.0639 54.3636 30.3248 54.481 30.6025 54.5216C31.5215 54.5216 32.448 54.4538 33.3744 54.4312C33.8264 54.4312 33.977 54.1826 33.9846 53.7834V51.8702C34.7905 51.825 33.0505 51.8099 46.5712 51.8702C47.6032 51.8702 47.686 51.8174 47.686 50.793V28.949C47.686 28.1054 47.686 28.0903 46.8047 28.0903C42.0216 28.0903 37.2461 28.0903 32.4931 28.0903C31.9282 28.0903 31.7399 28.241 31.7399 28.8059C31.7173 33.7397 31.6345 43.9837 31.6345 44.3377C30.8059 44.3377 31.0319 44.1344 29.6082 45.1663C29.4877 38.1988 29.3747 31.4573 29.2617 24.6631L92.2327 24.2262C91.8334 26.2374 91.969 25.9587 91.389 27.1187C90.6358 28.5348 90.0257 29.996 90.327 31.6381C90.4852 32.4801 90.816 33.2803 91.2986 33.9882C91.7545 34.5893 92.037 35.3037 92.1154 36.054C92.1937 36.8043 92.0649 37.5618 91.7431 38.244C90.9371 40.1874 90.1612 42.1458 89.3703 44.0967C88.6171 45.8668 88.9485 46.7933 90.0332 48.0512C90.2162 48.2149 90.362 48.4159 90.4608 48.6407C90.5595 48.8655 90.6089 49.1088 90.6057 49.3543C90.4399 51.84 91.276 53.1205 93.6186 54.1374L94.1986 54.4086L93.8898 55.0112C92.0745 55.0112 82.1468 54.8455 78.938 54.853C78.4258 54.853 78.2299 54.7249 78.1847 54.1826C78.0868 52.9699 77.891 51.7647 77.7177 50.4164C79.1187 51.4709 80.4746 52.4501 81.7852 53.4896C82.5987 54.1374 83.4273 54.4086 84.2935 53.3691C84.881 52.6611 85.5589 52.0283 86.1691 51.3354C86.381 51.1278 86.509 50.8493 86.5285 50.5533C86.5479 50.2573 86.4575 49.9645 86.2745 49.731C86.1239 49.505 86.0335 49.3242 86.2745 49.0756C86.38 48.9702 86.3423 48.7065 86.3423 48.5182C86.2218 42.9894 85.9582 29.1825 85.928 27.8116C85.928 27.3145 85.348 27.4124 85.2878 27.4124C49.1322 27.1337 51.3468 27.1413 51.1208 27.1714C51.0345 27.1652 50.9479 27.1782 50.8672 27.2094C50.7865 27.2406 50.7137 27.2893 50.6539 27.3519C50.5942 27.4145 50.549 27.4895 50.5217 27.5716C50.4943 27.6537 50.4854 27.7408 50.4956 27.8267C50.4956 30.9225 50.0813 47.8177 50.1642 48.1642C50.247 48.5107 50.0286 48.7819 49.652 48.7517C49.3821 48.6959 49.1012 48.742 48.8634 48.8811C48.6255 49.0202 48.4476 49.2424 48.3639 49.505C48.2391 49.7667 48.2154 50.0653 48.2975 50.3434C48.3795 50.6215 48.5615 50.8594 48.8083 51.0115C48.895 51.0747 48.9586 51.1647 48.9891 51.2676C49.3281 52.4652 49.6595 53.6629 50.0135 54.9358L29.2391 55.1392C29.2391 54.9283 29.2391 54.6797 29.2843 54.4312C29.3747 53.9792 29.5329 53.9642 29.8493 54.2052V54.1826ZM47.1738 50.5821C47.1738 51.1772 47.0081 51.3354 46.4206 51.3354C39.9201 51.3354 34.9261 51.4257 34.1126 51.3354C34.1126 46.8686 34.1126 46.8762 34.0298 45.0759C34.0298 44.5788 33.7285 44.3227 33.2313 44.3679C32.8698 44.3679 32.4781 44.3227 32.1165 44.2926C32.1919 39.0349 32.2672 33.8175 32.3425 28.6402H47.2341C47.2341 29.529 47.1964 44.0666 47.1964 50.6047L47.1738 50.5821ZM33.3518 45.091C33.284 47.9232 33.2313 50.6876 33.1409 53.4595C33.1166 53.5679 33.0651 53.6682 32.9913 53.7513C32.9176 53.8343 32.8239 53.8972 32.7191 53.934C32.0186 53.9868 31.3106 53.934 30.5347 53.934C30.6251 50.9211 30.708 47.9081 30.7984 44.8951L33.3518 45.091ZM113.994 36.73C113.959 36.8004 113.911 36.8632 113.852 36.9147C113.793 36.9663 113.724 37.0055 113.65 37.03C113.576 37.0546 113.497 37.064 113.419 37.0578C113.341 37.0515 113.265 37.0297 113.195 36.9936C112.024 36.5616 110.952 35.8952 110.047 35.0352C109.685 34.7189 108.985 34.5531 109.181 34.8243C110.326 36.1707 111.827 37.1678 113.512 37.7017C113.248 40.1949 112.653 42.7107 113.873 45.2793C113.263 45.671 112.623 46.1305 111.937 46.4995C109.32 47.9023 106.45 48.7703 103.494 49.053C102.785 49.0907 102.078 48.9509 101.437 48.6463C99.2038 47.7514 97.1594 46.443 95.4113 44.7897C95.0073 44.4288 94.6904 43.9811 94.4843 43.4801C94.2781 42.9791 94.1882 42.438 94.2212 41.8972C94.5903 37.8825 95.6674 35.4721 94.6958 33.2802C99.4562 27.5706 98.7256 28.595 99.9082 26.4031C100.051 26.147 99.8404 25.5745 99.4186 26.1922C98.4921 27.5329 97.656 28.9415 96.6466 30.2145C95.981 31.0137 95.2639 31.7685 94.4999 32.4742C94.3336 32.634 94.2195 32.8404 94.1724 33.0662C94.1254 33.292 94.1476 33.5267 94.2363 33.7396C94.4021 34.2756 94.4434 34.8424 94.3568 35.3968C94.2815 36.7074 93.4906 39.6978 93.3324 41.2871C93.0989 43.5468 94.2739 45.1889 96.0215 46.4694C100.503 49.7535 101.663 49.3091 103.705 49.7159C103.9 49.7535 104.164 50.7328 103.998 50.8156C102.492 51.5689 102.492 51.5689 102.725 53.2335C102.735 53.3136 102.735 53.3945 102.725 53.4746L95.8106 53.3766C95.7288 53.3574 95.6437 53.3574 95.562 53.3766C94.756 53.8286 94.0555 53.4294 93.3851 53.0678C92.5535 52.683 91.8935 52.0042 91.5321 51.1621C91.3756 50.6526 91.3395 50.1137 91.4267 49.5878C91.5022 49.1954 91.4723 48.7899 91.3399 48.4128C91.2076 48.0356 90.9776 47.7003 90.6734 47.4411C90.2406 47.0855 89.9447 46.5908 89.8361 46.0412C89.7276 45.4917 89.8132 44.9215 90.0784 44.4281C91.6677 40.3531 92.4888 38.5679 92.7524 36.5266C92.7636 35.9088 92.6746 35.2932 92.4888 34.7038C92.4258 34.4317 92.3079 34.1754 92.1423 33.9506C90.8618 32.0373 91.2308 30.1015 91.8108 28.0226C92.4812 25.6122 94.3643 24.648 96.3303 23.9023C98.8604 22.82 101.642 22.4644 104.363 22.8755C107.084 23.2867 109.637 24.4483 111.734 26.2298C113.493 27.6497 114.693 29.6452 115.124 31.8641C115.312 32.7228 115.508 33.5815 115.643 34.4477C115.704 35.0051 114.687 35.7659 113.994 36.7375V36.73ZM117.685 35.0804C121.835 35.7357 123.5 40.5263 121.263 44.0063C119.801 46.266 117.361 46.5221 115.237 45.219C113.278 43.9988 113.911 40.1723 114.333 37.9277C114.581 36.6848 116.133 34.8394 117.685 35.088V35.0804ZM113.421 48.1039L104.88 50.5972C104.797 50.2206 104.729 49.9343 104.654 49.5803C107.633 49.1368 110.497 48.1132 113.082 46.5673C113.195 47.0569 113.286 47.4863 113.421 48.1039ZM83.6683 58.348C82.1587 58.4229 80.6693 57.9761 79.4502 57.0826C78.6969 56.6005 78.6969 56.6156 78.6141 55.7267H93.5132C93.0346 56.6365 92.4255 57.4714 91.7054 58.2049C91.5283 58.3331 91.3138 58.3992 91.0953 58.3932C88.6171 58.3631 86.1389 58.1898 83.6683 58.333V58.348ZM90.9747 59.4703C90.7595 59.5827 90.5284 59.6614 90.2893 59.7039C88.3987 59.7716 86.5231 59.8545 84.6099 59.8394C84.1244 59.7483 83.6566 59.5805 83.2239 59.3423L83.2917 59.2293H90.9296L90.9747 59.4703ZM70.6372 56.5779C70.238 56.3143 69.4245 55.8247 67.6243 54.8003C67.0443 54.4613 67.5565 54.5216 68.0536 54.514C68.5508 54.5065 68.9877 54.514 69.4547 54.514C69.9217 54.514 70.464 54.7325 70.9611 54.7852C71.7822 54.8681 71.7144 54.2655 71.3604 53.9792C70.5619 53.2862 69.7258 52.646 68.9349 51.953C67.4284 50.6574 67.0217 49.9117 68.7617 50.8382C71.0214 52.0283 71.8424 52.5179 72.2341 52.7138C72.9874 53.1055 73.1681 52.6008 72.8819 52.0886C72.7237 51.8024 72.3245 51.2299 71.3754 49.7084C70.931 49.0154 71.0289 48.699 71.6391 49.2715C72.2492 49.8439 73.8084 51.3278 74.8931 52.5029C75.1492 52.774 75.1115 53.3691 75.5183 55.674C75.5382 55.745 75.5725 55.811 75.6192 55.8681C75.6659 55.9251 75.7238 55.9719 75.7894 56.0054C75.8527 56.0318 75.9205 56.0453 75.989 56.0453C76.0575 56.0453 76.1254 56.0318 76.1886 56.0054C76.2338 56.0054 76.2564 55.7795 76.1886 55.6815C75.8231 54.8087 75.7159 53.8492 75.8798 52.9172C76.0003 52.0133 76.0756 51.1018 76.1585 50.1528C76.1677 50.0441 76.2165 49.9426 76.2957 49.8676C76.3749 49.7926 76.4788 49.7493 76.5879 49.746C76.6961 49.7429 76.8018 49.7795 76.8851 49.8488C76.9683 49.9182 77.0233 50.0156 77.0398 50.1226C77.311 51.9229 77.5972 53.7231 77.9964 55.5008C78.1847 56.3369 78.2525 56.9621 77.5219 57.6174C76.879 58.2474 76.315 58.953 75.8421 59.7189C75.7472 59.8893 75.5967 60.0219 75.4157 60.0946C75.2347 60.1673 75.0343 60.1756 74.8479 60.1181C72.9271 59.5306 71.0139 58.8904 69.1006 58.2727C68.5206 58.0769 68.9801 58.0317 69.176 57.9865C70.1552 57.7756 70.4715 57.7078 70.6824 57.6475C71.383 57.414 71.398 57.0525 70.6297 56.5628L70.6372 56.5779ZM77.7403 42.8915L79.3522 44.5713L76.8891 47.2528L75.1718 45.317L77.7403 42.8915ZM74.524 44.5713L73.1757 43.1401L75.5258 40.5715L77.1528 42.1684L74.524 44.5713ZM78.373 49.0907C78.7173 48.5419 79.1712 48.0701 79.7063 47.7047C80.1055 47.4637 80.6478 47.7047 80.2109 48.4052C79.9352 48.8915 79.5136 49.2789 79.0058 49.5125C78.5463 49.7385 78.0416 49.52 78.3354 49.053L78.373 49.0907ZM80.2185 50.5972C80.5651 50.0478 81.0216 49.5759 81.5592 49.2112C81.9509 48.9702 82.5008 49.2112 82.0564 49.9117C81.7834 50.3975 81.3644 50.7849 80.8587 51.019C80.3917 51.2148 79.887 50.9964 80.2109 50.5294L80.2185 50.5972ZM82.0639 52.1037C82.4128 51.556 82.8688 51.0845 83.4047 50.7177C83.7964 50.4767 84.3462 50.7177 83.9018 51.4182C83.6265 51.904 83.2084 52.2932 82.7042 52.533C82.2372 52.6912 81.74 52.4803 82.0564 52.0057L82.0639 52.1037ZM81.4387 44.3377C81.0834 44.1211 80.6895 43.9753 80.2787 43.9084C79.6535 43.705 80.3691 44.3302 78.1621 42.2061C78.4408 41.9952 78.6291 41.837 78.8325 41.7014C78.9218 41.66 78.9998 41.5977 79.0598 41.5196C79.1197 41.4416 79.16 41.3502 79.177 41.2533C79.194 41.1564 79.1873 41.0568 79.1575 40.963C79.1277 40.8692 79.0756 40.784 79.0058 40.7147C76.0882 36.8179 73.1631 32.9312 70.2305 29.0545C70.1121 28.9115 69.9619 28.7982 69.7918 28.7237C69.6218 28.6491 69.4367 28.6154 69.2513 28.6251C68.9349 28.708 68.6864 29.1298 68.4453 29.4311C68.2043 29.7324 68.2419 29.9057 68.0762 30.0789C49.5766 49.0907 50.9325 47.6821 50.7065 47.8328C50.827 41.0988 50.94 34.4402 51.0605 27.7439L85.333 28.0075C85.4686 35.0202 85.5966 41.9048 85.7322 48.9175C84.3927 47.3075 82.959 45.7782 81.4387 44.3377V44.3377ZM68.2947 31.6833C68.8219 31.156 69.4547 30.7267 70.0949 30.1768C70.8482 31.1108 69.4396 29.1675 77.5294 40.5715C77.7328 40.8578 77.9964 41.1365 77.5294 41.3248L76.2564 40.1121C76.1834 40.0033 76.0847 39.9142 75.9691 39.8526C75.8535 39.791 75.7246 39.7587 75.5936 39.7587C75.4626 39.7587 75.3336 39.791 75.218 39.8526C75.1024 39.9142 75.0038 40.0033 74.9307 40.1121C74.7048 40.3682 74.4562 40.6092 74.1775 40.8653C73.8963 40.6339 73.5993 40.4225 73.2887 40.2326C73.1531 40.1573 72.9422 40.2326 72.7689 40.2326C72.7689 40.4284 72.7689 40.677 72.8518 40.8126C73.0824 41.0444 73.3347 41.2538 73.605 41.4378C73.251 41.8219 72.897 42.191 72.5354 42.5978C72.4633 42.6549 72.405 42.7276 72.3649 42.8104C72.3249 42.8932 72.3041 42.9841 72.3041 43.0761C72.3041 43.1681 72.3249 43.2589 72.3649 43.3417C72.405 43.4246 72.4633 43.4973 72.5354 43.5544C73.831 44.8951 75.119 46.251 76.3016 47.4938C76.151 48.006 76.038 48.3977 75.8873 48.9024C75.0814 48.9024 74.1398 48.9024 73.2058 48.9024C72.9679 48.9382 72.7249 48.9195 72.4953 48.8477C72.2657 48.776 72.0553 48.653 71.8801 48.4881C71.7911 48.3835 71.6794 48.3006 71.5535 48.2456C71.4276 48.1907 71.2908 48.1651 71.1536 48.1709C71.0163 48.1767 70.8822 48.2137 70.7614 48.2791C70.6407 48.3445 70.5364 48.4366 70.4565 48.5484C70.3543 48.68 70.2185 48.7817 70.0634 48.8427C69.9083 48.9037 69.7397 48.9217 69.5752 48.8949L51.1359 48.94C51.9268 48.1491 67.4962 32.4893 68.2947 31.6833ZM75.5484 49.6104C75.4429 50.4315 75.345 51.1922 75.232 52.1338L72.912 49.6104H75.5484ZM78.4107 58.0091C78.48 57.9548 78.5615 57.9182 78.6481 57.9024C78.7347 57.8867 78.8239 57.8923 78.9078 57.9187C80.0754 58.574 81.2278 59.2594 82.5535 60.0353H76.4447C77.1678 59.2444 77.7704 58.5966 78.4107 57.9714V58.0091ZM29.4651 55.6364H48.8837C50.2244 55.6364 50.2244 55.6364 50.5785 56.9018C50.7065 57.3763 50.8346 57.8509 50.9852 58.4083L26.5199 58.6493V57.1428C27.4389 56.6306 28.6667 56.7587 29.4651 55.6364ZM50.5559 51.7948C50.1868 50.9361 50.6538 50.198 50.6688 49.4146C51.0105 49.4695 51.3551 49.5047 51.7008 49.52C57.689 49.52 63.6773 49.52 69.658 49.52C69.9082 49.4871 70.1623 49.5361 70.3823 49.6597C70.6022 49.7832 70.7763 49.9747 70.8783 50.2055C71.106 50.5958 71.3074 51.001 71.4809 51.4182C69.3266 50.3561 69.063 50.1603 68.3173 49.9117C68.124 49.8475 67.9194 49.8251 67.7168 49.8458C67.5142 49.8666 67.3184 49.9301 67.1422 50.0322C66.743 50.3561 67.0292 50.8683 67.3079 51.1696C67.9934 51.9229 68.7391 52.6385 69.4773 53.3616C69.6438 53.5097 69.8227 53.6432 70.0121 53.7608C69.2588 53.7608 68.5056 53.7608 67.7523 53.7608C67.5948 53.7387 67.4344 53.7491 67.2811 53.7912C67.1277 53.8334 66.9845 53.9064 66.8604 54.0058C66.7362 54.1053 66.6337 54.2291 66.5591 54.3696C66.4846 54.5101 66.4395 54.6643 66.4266 54.8229C64.1669 54.8229 54.5932 54.8831 52.1151 54.9358C51.6179 54.9358 51.3618 54.8003 51.2714 54.3031C51.1054 53.4488 50.8608 52.6117 50.5408 51.8024L50.5559 51.7948ZM66.7656 55.4857C67.8585 55.5666 68.9048 55.9616 69.7786 56.6231C70.5318 57.0524 70.351 57.0525 69.7786 57.1504C69.5743 57.1891 69.3681 57.2167 69.1609 57.2332C68.3625 57.301 68.2645 57.3839 68.144 58.2275C67.1497 58.3405 63.7074 58.2727 53.147 58.4083C52.5821 58.4083 52.3486 58.235 52.2356 57.7002C52.1 57.0374 51.8816 56.3896 51.6707 55.6062C52.1151 55.6364 62.088 55.5836 66.7505 55.4932L66.7656 55.4857ZM74.426 61.1802C74.8328 61.1802 92.549 60.8262 101.098 60.6228C101.204 60.6046 101.312 60.6079 101.416 60.6324C101.521 60.6568 101.619 60.702 101.705 60.7653C101.792 60.8286 101.865 60.9086 101.919 61.0005C101.974 61.0925 102.01 61.1946 102.025 61.3007C106.326 74.6331 107.877 79.2128 108.231 80.5008L79.9925 80.8925C78.1245 74.3092 76.279 67.7861 74.411 61.1877L74.426 61.1802ZM107.674 75.6575C108.94 75.2959 110.137 74.9043 111.357 74.6256C113.293 74.1811 115.259 73.8723 117.203 73.4128C118.877 73.1022 120.599 73.1432 122.257 73.5334C122.424 73.5556 122.594 73.5556 122.762 73.5334C122.725 73.3365 122.648 73.1493 122.536 72.9835C121.782 72.3357 120.863 72.396 119.982 72.2302C119.714 72.2112 119.444 72.2112 119.176 72.2302C119.545 69.9705 119.929 67.756 120.246 65.549C120.539 63.5379 121.428 61.6472 121.714 59.6361C121.827 58.8828 121.579 58.8828 121.293 59.3423L120.675 60.2989C120.261 60.0579 119.922 59.1691 119.523 58.7924C118.4 57.8735 120.14 60.7509 120.17 60.8036C120.307 61.0294 120.358 61.2967 120.313 61.5568C119.191 64.9765 118.935 68.5469 118.566 72.17L107.486 75.085C106.733 72.8253 102.883 61.3083 102.529 60.3366C102.447 60.0358 102.257 59.7753 101.997 59.6035C101.736 59.4317 101.422 59.3603 101.113 59.4026C99.3583 59.4704 93.581 59.6436 91.8184 59.6436C92.2929 58.8904 92.4285 58.0693 93.2495 57.6475C93.5405 57.4254 93.7731 57.1359 93.9274 56.8039C94.2515 56.327 94.5338 55.8229 94.7711 55.2974C94.914 54.9608 95.1646 54.6813 95.4837 54.5027C95.8027 54.3241 96.1721 54.2565 96.5337 54.3107C98.7934 54.3107 101.008 54.3107 103.245 54.3107C103.637 54.3107 103.795 54.0997 103.765 53.7382C103.746 53.2891 103.686 52.8427 103.584 52.405C103.448 51.9304 103.531 51.7195 104.036 51.5839C111.719 49.5577 112.796 49.1133 114.92 48.4354C115.674 50.0021 114.476 50.3787 113.354 51.2374C112.962 51.5387 112.849 52.0811 113.527 51.6743L114.785 50.9211L114.898 50.9964L113.557 53.1356C113.533 53.178 113.524 53.2274 113.532 53.2755C113.541 53.3236 113.565 53.3673 113.602 53.3992C113.638 53.432 113.685 53.4502 113.734 53.4502C113.783 53.4502 113.83 53.432 113.866 53.3992C114.556 52.3958 115.163 51.3378 115.681 50.2356C115.981 50.3295 116.274 50.4479 116.555 50.5896C116.999 50.8318 117.491 50.9735 117.996 51.0047C118.501 51.0359 119.007 50.956 119.477 50.7704C124.411 49.4146 124.185 49.4071 126.437 49.1736C129.45 48.8647 130.452 52.8418 131.356 55.7267C131.405 56.1939 131.388 56.6657 131.303 57.1278C131.18 57.8601 131.198 58.6092 131.356 59.3348C131.921 60.6529 131.718 61.941 131.589 63.2592C131.516 63.7471 131.413 64.2301 131.281 64.7054C131.091 65.3434 130.969 66 130.919 66.6638C130.905 68.211 130.669 69.7481 130.219 71.2284C129.639 73.4053 129.157 75.6123 128.569 77.7892C128.341 78.4296 128.059 79.0495 127.725 79.6421C127.635 79.8305 127.552 80.0263 127.424 80.3125H117.873C117.873 80.3125 117.828 80.3125 117.828 80.2447C117.707 78.8362 117.587 78.7382 116.186 78.7382C113.866 78.7382 111.538 78.7834 109.218 78.8286C109.141 78.8438 109.062 78.8432 108.986 78.8269C108.909 78.8106 108.837 78.779 108.773 78.734C108.709 78.6889 108.654 78.6314 108.613 78.5648C108.572 78.4982 108.545 78.424 108.533 78.3466C108.284 77.4803 107.975 76.6367 107.659 75.665L107.674 75.6575ZM116.849 79.5442C116.894 79.8982 117.15 80.3652 116.487 80.3728C114.062 80.3728 111.636 80.3728 109.15 80.3728C109.105 80.1317 109.06 79.8606 109.007 79.5367L116.849 79.5442ZM138.135 63.1688C137.201 68.6925 136.287 74.1962 135.393 79.6798C135.31 80.1619 135.115 80.3803 134.565 80.1769C135.544 74.151 136.523 68.1251 137.502 62.0992C138.218 62.2121 138.233 62.5737 138.135 63.1688ZM132.569 61.8581H136.583C135.589 68.0573 134.618 74.1134 133.646 80.1995H128.177C129.533 78.8663 129.774 77.1037 130.143 75.3939C130.58 73.3601 131.07 71.3264 131.439 69.2775C131.657 68.1025 131.627 66.8822 131.808 65.6997C132.026 64.3739 132.343 63.0633 132.569 61.8581ZM116.592 21.6803C120.2 22.9608 121.489 26.953 122.724 29.5818C123.702 31.6013 125.045 33.4222 126.686 34.9524C127.027 35.3013 127.349 35.6684 127.65 36.0521C127.989 36.4688 128.235 36.9533 128.372 37.473C128.508 37.9927 128.532 38.5355 128.441 39.0651C128.335 39.8245 128.422 40.5984 128.693 41.3156C128.964 42.0329 129.411 42.6706 129.993 43.1702C130.912 44.044 131.702 45.0458 132.621 45.9271C133.759 47.0193 133.804 48.3149 133.42 49.6933C133.044 50.8455 132.434 51.9073 131.627 52.8117C131.514 52.5631 131.431 52.3974 131.371 52.2317C130.898 51.0004 130.121 49.9092 129.111 49.0606C128.634 48.6652 128.069 48.3903 127.463 48.2592C126.858 48.1281 126.229 48.1446 125.631 48.3073C123.658 48.7367 121.692 49.2112 119.779 49.8138C118.445 50.2432 117.203 50.4842 115.93 49.6782C115.93 49.1585 115.93 48.5634 115.93 47.9684C115.93 47.3733 115.568 47.1549 115.018 47.3507C114.664 47.4788 114.318 47.6445 113.964 47.8027C113.805 47.2754 113.67 46.8084 113.519 46.2962L114.272 45.6258C114.827 46.1077 115.478 46.4653 116.182 46.6744C116.887 46.8836 117.627 46.9396 118.355 46.8385C119.293 46.7165 120.176 46.3271 120.899 45.7167C121.621 45.1062 122.153 44.3007 122.43 43.3962C123.379 40.8126 123.183 37.8825 120.924 35.8638C120.164 35.2134 119.662 34.3132 119.508 33.3254C117.278 23.247 108.985 20.9873 107.365 20.0005C110.5 20.1658 113.601 20.7303 116.592 21.6803V21.6803ZM109.316 21.6125C112.273 23.1453 114.771 25.4352 116.555 28.2485C117.676 30.1753 118.441 32.2878 118.815 34.4854L116.487 34.3121C116.276 33.3103 116.058 32.2407 115.824 31.1711C115.184 28.4369 113.521 26.0516 111.177 24.5049C108.806 22.8701 106.018 21.9452 103.14 21.8384C99.7842 21.6024 96.4475 22.5076 93.6714 24.407C93.2528 24.6611 92.8703 24.9702 92.534 25.3259C92.1121 24.987 95.8256 20.9421 100.624 20.2114C103.596 19.6855 106.659 20.1792 109.316 21.6125V21.6125ZM98.4243 20.106C96.5613 20.8705 94.8342 21.9312 93.3098 23.247C93.1975 23.3327 93.0594 23.3779 92.9181 23.3751L30.1958 23.7667C28.6893 23.7667 28.6516 23.8345 28.6893 25.2732C28.7646 30.9979 28.9303 42.9217 28.9303 43.2154C28.3579 43.0422 27.8306 42.9066 27.3259 42.7107C26.8212 42.5149 27.2054 40.1799 25.9475 40.0141C25.9475 37.0012 25.7064 22.4335 25.7064 20.0834L98.4243 20.106ZM26.5501 43.0572C26.5501 43.238 26.2111 43.4489 25.9098 43.8105C25.7215 41.2419 25.7215 41.2419 26.2638 41.0386C26.3953 41.7058 26.4908 42.3797 26.5501 43.0572V43.0572ZM21.88 39.1329C23.1605 39.5697 24.7272 40.0367 26.0002 40.4736C26.0002 40.5414 25.601 40.8201 25.4428 40.8502C24.1623 40.4435 22.4299 39.871 21.1493 39.4643C21.3486 39.2746 21.606 39.1578 21.88 39.1329V39.1329ZM20.8706 39.8861L25.1566 41.1817V43.8707L19.7031 42.2965L20.8706 39.8861ZM19.5148 41.5206C19.5148 41.5206 19.1533 42.0705 19.1231 42.2211C19.0327 42.6354 19.2512 42.6656 20.0421 42.8765C21.6691 43.3209 23.281 43.8406 24.8929 44.3377C26.1283 44.7219 27.0698 43.3585 27.0698 43.3585C27.0698 43.3585 28.0566 43.7126 28.2072 43.7578C27.8605 44.2288 27.4804 44.6744 27.0698 45.091C26.9381 45.1715 26.7911 45.2238 26.6381 45.2446C26.4851 45.2653 26.3294 45.2541 26.181 45.2115C23.3789 44.4583 20.5844 43.5996 17.7899 42.7785C16.9463 42.53 16.1177 42.2437 15.2665 41.965C15.8568 41.4914 16.5696 41.1953 17.3218 41.1113C18.074 41.0272 18.8345 41.1588 19.5148 41.4905V41.5206ZM15.3268 54.5065C14.9276 54.4236 14.5359 54.3107 14.1442 54.1977C13.9188 54.1557 13.715 54.0364 13.5679 53.8605C13.4208 53.6845 13.3396 53.4628 13.3382 53.2335C13.2872 50.1891 13.4003 47.1441 13.6772 44.1118C13.7375 42.9066 14.3702 42.3492 15.5302 42.6882C17.6844 43.3133 19.8161 44.0364 21.9704 44.6842C23.4241 45.1211 24.9005 45.4902 26.3618 45.8894C26.5919 45.9485 26.8343 45.9377 27.0583 45.8586C27.2823 45.7795 27.4777 45.6355 27.6197 45.445C27.9963 45.0383 28.4181 44.6918 28.8249 44.3076L28.9906 44.4055C28.9228 46.0551 28.6215 53.2636 28.5688 55.2221C28.5863 55.3683 28.5467 55.5157 28.4583 55.6336C28.3699 55.7514 28.2395 55.8306 28.0942 55.8548C27.341 56.0958 26.5877 56.3971 25.7592 56.608C25.2093 56.706 25.2394 56.6683 15.3268 54.5065ZM18.9348 62.2498C18.8337 62.2202 18.7419 62.1651 18.6681 62.09C18.5942 62.0148 18.5409 61.9221 18.513 61.8205C18.3925 59.847 18.3096 57.8735 18.2117 55.7945L22.106 56.706C22.106 58.3405 22.106 59.9524 22.106 61.5644C22.106 62.3176 21.8649 62.4607 21.1267 62.4306C20.3886 62.4005 19.6504 62.3477 18.9348 62.2498ZM20.7727 65.0669L20.0195 65.1121C19.9517 64.4643 19.8839 63.8391 19.8161 63.2215C20.9083 62.9051 20.7727 63.1688 20.7727 65.0669V65.0669ZM19.1984 68.3963V65.8503H21.7143V68.3963H19.1984ZM24.2 73.925C23.8459 72.2227 23.6576 72.4186 22.3997 72.3658L21.0891 72.2905V69.3679C21.0891 69.3679 21.1493 69.3152 21.187 69.3152C22.3545 69.3152 22.3997 69.3152 22.4976 68.1477C22.568 67.2943 22.5478 66.4358 22.4374 65.5867C22.3997 65.3004 22.4374 64.8937 21.4657 64.9464C21.4054 64.4191 21.3527 63.8919 21.2925 63.3119C22.7989 63.0708 22.927 62.0238 22.8893 60.8488C22.7613 57.0826 22.814 57.655 22.8893 56.9395L25.9023 57.5195C25.7818 59.2143 25.6085 59.4026 26.7309 59.4026H50.247C51.4673 59.4026 51.2112 59.267 51.5275 60.3592C57.5535 81.1787 56.047 76.5011 56.9961 79.0847C56.6948 79.0847 51.2564 79.2203 48.7782 79.273C47.8894 79.273 47.8969 79.273 48.025 80.1845C48.0515 80.5581 48.0515 80.9332 48.025 81.3068C47.2717 81.3746 49.4185 81.3445 32.6965 81.5704C31.6269 81.5704 31.5591 81.6684 31.6495 82.7154C31.7022 83.333 31.7399 83.9582 31.7625 84.5834C31.7625 85.5927 32.222 86.0296 33.2238 86.0372C34.4892 86.0372 35.7622 86.0372 37.1708 86.0372C34.6022 94.8124 32.0638 103.512 29.5178 112.212C29.4727 112.129 24.7724 76.6141 24.2 73.925ZM25.3223 141.717L22.2189 141.295C24.4084 133.732 26.6053 126.165 28.8098 118.592C28.8098 118.592 29.563 123.451 29.8719 125.876C29.9171 126.245 30.128 125.273 25.3223 141.709V141.717ZM30.9189 122.675L29.8794 115.67C29.8794 115.67 30.4745 112.966 30.8586 111.64C33.1861 103.482 35.5664 95.3321 37.9165 87.1821C38.2705 85.9618 38.2479 85.9543 39.5736 85.9317C40.2591 85.9317 40.937 85.9317 41.7203 85.9317C38.1048 98.2397 34.5118 110.457 30.9189 122.675ZM55.0979 141.069H52.7252C52.3561 141.069 52.213 140.903 52.1603 140.534C51.7158 137.227 44.9367 90.2101 44.3567 86.4966C44.3413 86.2935 44.3413 86.0896 44.3567 85.8865H46.5712C49.4034 104.205 52.2356 122.532 55.0979 141.069V141.069ZM33.1409 84.9073V82.6476L113.888 81.6608C113.888 82.3086 113.888 82.866 113.888 83.4234C113.888 83.9808 113.745 84.0787 113.233 84.0863C110.521 84.1164 34.1653 84.9073 33.1409 84.9073ZM80.1055 133.115C80.3842 131.232 80.9868 129.401 81.3107 127.518C82.5309 120.415 83.4499 111.745 84.4366 105.561C85.0543 101.72 85.8904 97.9158 86.6286 94.0968C86.6737 93.8407 86.7792 93.5997 86.8395 93.3436C86.98 92.6468 87.304 92.0001 87.7781 91.4705C88.2522 90.9408 88.859 90.5473 89.5361 90.3306C91.2459 89.6527 92.8955 88.8241 94.5451 87.9654C96.0281 87.3553 97.5904 86.9596 99.1851 86.7904C102.085 86.2631 103.953 86.7904 115.455 88.1613C115.956 88.2043 116.46 88.2043 116.962 88.1613C117.632 88.1613 117.301 87.5361 116.962 87.506C115.824 87.408 114.702 87.4156 113.549 87.28C112.126 87.1068 110.717 86.7904 109.294 86.6096C107.614 86.3912 105.919 86.2631 104.232 86.0597C100.285 85.5777 98.4168 86.1727 95.9461 86.7377C95.9549 86.6439 95.97 86.5507 95.9913 86.459C96.3604 85.4647 96.3604 85.4722 97.4225 85.4647L118.754 85.3065C118.513 86.0597 105.467 129.748 103.501 136.467C103.373 136.888 103.207 137.062 102.748 137.016C100.722 136.806 98.6804 136.655 96.6542 136.444C95.4791 136.316 95.1929 136 95.2607 134.802C95.3285 133.604 95.5394 132.542 95.6222 131.405C95.7428 129.778 96.6994 98.8347 96.7973 96.9667C96.8373 96.4349 97.0238 95.9246 97.3363 95.4924C97.6488 95.0603 98.0749 94.7232 98.5674 94.5186C101.083 93.2833 104.827 91.7091 107.395 90.6169C107.395 90.6169 108.714 90.534 109.602 90.6169C110.491 90.6997 111.357 89.9615 110.476 89.5699C110.378 89.5699 110.695 89.5699 105.143 89.2384C103.772 89.1556 104.39 89.8711 104.48 89.9088C104.917 90.1348 105.377 90.3005 105.949 90.5415C105.686 90.6244 105.482 90.6771 105.286 90.7524C103.079 91.6337 100.835 92.4548 98.6653 93.4189C96.6542 94.3002 95.7955 95.9197 95.7428 98.1493C95.6599 101.976 95.3812 105.795 95.2155 109.621C95.1628 110.819 95.0573 120.325 94.9142 123.872C94.7927 124.523 94.5903 125.155 94.3116 125.756C93.3173 128.881 92.323 132.007 91.3514 135.141C91.0651 136.075 90.9446 136.165 89.9579 136.165C87.0792 136.027 84.2171 135.649 81.4011 135.035C79.759 134.727 79.8418 134.825 80.0754 133.092L80.1055 133.115ZM94.9368 136.881C94.0178 137.355 93.2194 137.875 92.1724 137.408C91.7713 137.319 91.3629 137.266 90.9522 137.25C92.1799 136.617 92.1423 135.397 92.4586 134.342C93.2119 131.812 94.0103 129.303 94.8012 126.81C94.8012 126.735 94.8765 126.667 95.0347 126.622C94.8238 128.927 94.6154 131.237 94.4095 133.552C94.289 134.666 94.0781 135.811 94.9067 136.888L94.9368 136.881ZM94.7861 141.8C94.9242 142.088 95.0303 142.392 95.1025 142.703C92.2663 143.315 89.3716 143.613 86.4704 143.592C85.5364 143.592 85.2275 142.997 85.7171 142.229C85.956 141.82 86.2644 141.455 86.6286 141.152C87.8789 140.248 89.1594 139.389 90.455 138.538C90.7335 138.375 91.0401 138.265 91.3589 138.214C91.6293 138.112 91.9278 138.113 92.1974 138.218C92.467 138.322 92.6887 138.522 92.8202 138.779C93.4002 139.826 94.1534 140.79 94.756 141.807L94.7861 141.8ZM81.6496 136C84.1606 136.593 86.724 136.936 89.3026 137.024C90.1311 137.024 90.1462 137.077 90.3194 137.499C88.8732 138.538 87.4797 139.615 86.0034 140.557C85.4682 140.761 84.8954 140.848 84.3236 140.813C83.3595 140.888 82.3953 140.941 81.4237 141.009C80.7759 139.502 80.2185 137.883 79.0284 136.64C79.7213 135.819 80.6403 135.826 81.6195 136.007L81.6496 136ZM70.803 140.707C70.9461 140.383 71.0063 139.954 71.2549 139.766C72.7986 138.465 74.5372 137.415 76.4071 136.655C76.7619 136.498 77.1575 136.458 77.5366 136.541C77.9156 136.623 78.2587 136.824 78.5161 137.114C79.4577 138.169 79.8494 139.487 80.3842 140.918C70.4565 141.242 72.0006 141.25 70.803 140.707ZM83.4499 142.673C79.8117 142.673 76.1811 142.673 72.5429 142.726C71.9328 142.726 71.2474 142.899 71.1796 142.101L85.1522 141.559C84.9262 142.417 84.2935 142.673 83.4122 142.673H83.4499ZM100.774 143.668C92.3682 144.496 91.8259 144.571 85.9356 144.715C85.0543 144.715 84.6475 144.323 84.7304 143.517C85.4836 144.413 86.4101 144.383 87.3517 144.315C88.1049 144.263 88.8958 144.315 89.6641 144.255C96.9479 143.547 98.236 143.238 101.588 142.749C101.611 143.381 101.467 143.6 100.767 143.668H100.774ZM101.626 141.679C99.6897 142.033 97.7539 142.364 95.8633 142.696C95.4357 141.131 94.6344 139.694 93.5282 138.508C95.9461 137.062 95.3511 137.303 96.3378 137.386C103.614 137.973 102.755 137.905 103.057 137.988C102.725 139.126 102.409 140.248 102.055 141.378C102.008 141.457 101.945 141.524 101.87 141.576C101.794 141.628 101.708 141.663 101.618 141.679H101.626ZM106.499 143.487C106.446 143.675 106.198 143.931 106.032 143.939C104.849 143.976 103.674 143.939 102.401 143.939C108.141 124.392 114.009 104.928 119.726 85.2764H123.161C123.108 85.4722 106.507 143.434 106.492 143.487H106.499ZM133.473 98.0137C133.081 99.8139 132.862 101.652 132.395 103.437C132.065 104.474 131.608 105.466 131.032 106.39C130.789 106.791 130.461 107.135 130.07 107.395C129.68 107.656 129.237 107.827 128.772 107.896C119.651 109.523 119.884 109.403 117.79 109.696C117.647 109.696 117.496 109.696 117.285 109.696L117.685 108.25C120.554 108.301 123.421 108.061 126.241 107.535C129.488 106.94 131.288 104.778 131.959 101.705C132.539 99.0607 132.765 96.1758 133.088 94.3529C133.322 95.5581 133.744 96.7407 133.465 98.0137H133.473ZM143.34 144.617C143.197 144.617 143.024 144.255 142.978 144.044C142.978 143.984 132.78 85.9543 132.712 85.1257H135.152C138.693 104.976 142.235 124.852 145.781 144.752C144.899 144.715 144.108 144.707 143.333 144.617H143.34Z" fill="#471280"/>
<path d="M122.551 58.1816C123.07 56.419 125.067 53.6169 126.114 52.1556C126.543 51.5455 126.972 50.9279 127.447 50.3479C127.479 50.3059 127.526 50.2784 127.578 50.2713C127.631 50.2643 127.684 50.2782 127.725 50.3102C127.767 50.3422 127.795 50.3895 127.802 50.4418C127.809 50.494 127.795 50.547 127.763 50.5889C125.97 53.0671 124.117 55.4624 122.882 58.2644C122.641 58.7917 122.393 58.7314 122.551 58.1816Z" fill="#471280"/>
<path d="M101.076 61.6611C101.219 61.9045 101.347 62.156 101.46 62.4144C103.353 67.9381 105.229 73.4619 107.087 78.9857C107.155 79.174 107.034 79.4376 106.996 79.6636C106.823 79.4979 106.552 79.3548 106.484 79.1514C104.676 73.7532 102.881 68.3449 101.099 62.9266C100.985 62.5247 100.892 62.1175 100.82 61.7063L101.076 61.6611Z" fill="#471280"/>
<path d="M109.859 34.1237C106.402 33.732 103.525 32.6172 101.574 29.7398C101.054 28.9866 100.497 28.2333 99.9769 27.4801C99.6078 26.9227 100.173 26.8926 100.406 27.1713C101.28 28.2258 102.154 29.2879 103.005 30.3725C104.911 32.7904 107.999 32.9411 109.957 33.3855C110.824 33.6341 110.447 34.1915 109.859 34.1237Z" fill="#471280"/>
<path d="M104.428 42.5978C104.307 43.413 103.977 44.1828 103.468 44.8313C102.96 45.4798 102.291 45.9847 101.528 46.2963C101.208 46.3538 100.88 46.3417 100.566 46.2609C100.251 46.1801 99.9576 46.0325 99.7053 45.828C99.4529 45.6236 99.2476 45.3672 99.1033 45.0762C98.959 44.7852 98.8792 44.4666 98.8691 44.142C98.8958 43.9569 98.963 43.7799 99.0658 43.6237C99.1687 43.4674 99.3047 43.3358 99.4642 43.2381C100.745 42.6907 102.048 42.1886 103.374 41.7316C104.157 41.5056 104.436 41.7693 104.428 42.5978ZM103.938 42.1836C102.432 42.7033 101.197 43.1251 99.9463 43.6147C99.8275 43.6899 99.729 43.7931 99.6593 43.9152C99.5897 44.0373 99.5512 44.1747 99.5471 44.3152C99.5778 44.5538 99.6617 44.7823 99.7927 44.9841C99.9236 45.1858 100.098 45.3555 100.304 45.4806C100.509 45.6057 100.74 45.6831 100.979 45.7069C101.219 45.7307 101.46 45.7005 101.686 45.6183C102.628 45.1257 103.347 44.2937 103.697 43.2908C103.82 42.9318 103.903 42.5605 103.946 42.1836H103.938Z" fill="#471280"/>
<path d="M99.7279 38.8692C99.4135 39.3248 99.0356 39.7332 98.6056 40.0819C98.5666 40.1204 98.5405 40.1701 98.5311 40.2241C98.5216 40.2781 98.5292 40.3337 98.5529 40.3832C98.5743 40.4325 98.6103 40.4742 98.6561 40.5024C98.7019 40.5307 98.7552 40.5443 98.809 40.5414C99.6752 40.4736 100.037 40.4435 100.233 40.451C101.152 40.451 100.451 40.9632 100.285 40.9858C99.6461 41.0724 99.002 41.1177 98.357 41.1214C97.8297 41.1214 97.4456 40.6242 97.7243 40.2777C98.2398 39.6781 98.7854 39.1049 99.3588 38.5604C99.8484 38.0707 99.9991 38.3494 99.7279 38.8692Z" fill="#471280"/>
<path d="M106.891 36.4062C106.68 36.8883 106.024 36.941 105.942 36.3158C105.859 35.8702 105.859 35.4131 105.942 34.9675C105.979 34.8018 106.439 33.7698 106.996 35.0127C107.061 35.4794 107.025 35.9545 106.891 36.4062Z" fill="#471280"/>
<path d="M96.8579 36.4969C96.8324 36.5933 96.7757 36.6785 96.6967 36.7393C96.6176 36.8001 96.5207 36.8331 96.421 36.8331C96.3213 36.8331 96.2244 36.8001 96.1454 36.7393C96.0664 36.6785 96.0097 36.5933 95.9841 36.4969C95.9589 35.9237 95.9791 35.3495 96.0444 34.7795C96.0718 34.7015 96.1228 34.6339 96.1902 34.5862C96.2577 34.5384 96.3383 34.5127 96.421 34.5127C96.5037 34.5127 96.5843 34.5384 96.6518 34.5862C96.7193 34.6339 96.7702 34.7015 96.7976 34.7795C96.981 35.3345 97.0019 35.9304 96.8579 36.4969V36.4969Z" fill="#471280"/>
<path d="M23.537 54.8828C23.4918 55.5382 23.0549 55.5156 22.6105 55.4101C21.2095 55.0862 15.7184 53.7003 14.3701 53.3613C13.9407 53.2558 13.9106 52.9621 13.9332 52.6081C14.0236 51.2146 14.3851 46.2884 14.4454 45.2188C14.5056 44.1492 14.5885 44.0889 15.5602 44.3601C18.1212 45.0681 20.6747 45.7912 23.2432 46.4691C23.8609 46.6349 24.1321 46.891 23.9965 47.5387C23.9588 47.7949 24.0191 47.2902 23.537 54.8828ZM15.063 44.8723L14.7241 52.6608L22.9043 54.7548L23.4466 47.2902C21.2095 46.5972 23.5822 47.2977 15.063 44.8723Z" fill="#471280"/>
<path d="M26.6106 47.3509C26.6106 48.4582 26.1964 54.4465 26.106 55.5085C26.106 56.0509 25.5787 56.0659 25.5636 55.6366C25.5184 54.2582 26.0758 47.7652 26.1662 47.2681C26.3621 46.3642 26.5956 46.4245 26.6106 47.3509Z" fill="#471280"/>
<path d="M118.889 44.5105C121.39 43.004 121.488 39.396 119.891 37.3472C119.669 37.0546 119.378 36.8207 119.045 36.6658C118.711 36.5109 118.345 36.4397 117.978 36.4584C117.225 36.4584 117.654 35.9687 117.978 35.9537C118.473 35.9332 118.966 36.0385 119.41 36.2597C119.854 36.481 120.234 36.8111 120.516 37.2191C121.228 38.2513 121.574 39.4913 121.5 40.7426C121.427 41.9939 120.937 43.1848 120.11 44.1263C119.851 44.4392 119.53 44.6956 119.168 44.8796C118.626 45.1282 118.114 44.9775 118.889 44.5105Z" fill="#471280"/>
<path d="M116.796 36.8046C115.878 38.6712 115.547 40.7722 115.847 42.8306C115.864 43.3124 116.046 43.7737 116.363 44.1371C116.68 44.5005 117.112 44.744 117.587 44.8266C117.888 44.8794 117.964 45.5046 117.203 45.2786C116.693 45.1031 116.241 44.7912 115.896 44.3769C115.55 43.9626 115.325 43.4617 115.244 42.9285C114.968 41.5783 115.046 40.1797 115.47 38.8685C115.691 38.1636 115.957 37.4742 116.269 36.8046C116.419 36.4355 117.188 36.0514 116.796 36.8046Z" fill="#471280"/>
<path d="M16.8031 50.6574C17.9083 49.8268 19.0684 49.0718 20.2755 48.3977C21.5033 47.7424 20.6672 48.6387 20.5843 48.699C19.5473 49.6315 18.3925 50.4241 17.1496 51.0566C17.0742 51.1169 15.7711 51.4031 16.8031 50.6574Z" fill="#471280"/>
<path d="M21.2544 50.5L18.7461 52.1646C18.3694 52.4207 18.0908 52.2174 18.5201 51.8483C19.3453 51.2401 20.2028 50.6769 21.0886 50.161C21.4653 49.8898 21.7063 50.1987 21.2544 50.5Z" fill="#471280"/>
</svg>
